<?xml version="1.0" encoding="UTF-8"?>
<svg xmlns="http://www.w3.org/2000/svg" xmlns:xlink="http://www.w3.org/1999/xlink" width="1920" height="1080" viewBox="0 0 1920 1080">
<defs>
<g>
<g id="glyph-0-0">
<path d="M 0.472656 -2.820312 L 1.488281 -2.820312 L 1.488281 -0.0078125 C 1.445312 0.00390625 1.382812 0.015625 1.292969 0.03125 C 1.203125 0.0429688 1.113281 0.046875 1.019531 0.046875 C 0.820312 0.046875 0.679688 0.0117188 0.597656 -0.0585938 C 0.515625 -0.132812 0.472656 -0.253906 0.472656 -0.429688 Z M 1.488281 -1.542969 L 0.472656 -1.542969 L 0.472656 -4.050781 C 0.519531 -4.058594 0.585938 -4.070312 0.679688 -4.085938 C 0.769531 -4.101562 0.859375 -4.105469 0.945312 -4.105469 C 1.136719 -4.105469 1.277344 -4.074219 1.363281 -4.007812 C 1.449219 -3.941406 1.488281 -3.8125 1.488281 -3.628906 Z "/>
</g>
<g id="glyph-0-1">
<path d="M 0.472656 -2.890625 L 1.394531 -2.898438 C 1.414062 -2.710938 1.425781 -2.523438 1.433594 -2.335938 C 1.441406 -2.148438 1.449219 -1.96875 1.449219 -1.792969 C 1.453125 -1.621094 1.453125 -1.453125 1.453125 -1.289062 L 1.453125 -0.00390625 C 1.414062 0.00390625 1.351562 0.015625 1.261719 0.03125 C 1.175781 0.0429688 1.085938 0.046875 1 0.046875 C 0.804688 0.046875 0.671875 0.015625 0.589844 -0.0546875 C 0.511719 -0.121094 0.472656 -0.242188 0.472656 -0.414062 Z M 4.023438 -1.175781 L 3.097656 -1.164062 C 3.066406 -1.492188 3.050781 -1.800781 3.046875 -2.09375 C 3.042969 -2.386719 3.042969 -2.664062 3.042969 -2.929688 L 3.042969 -4.054688 C 3.085938 -4.0625 3.148438 -4.074219 3.234375 -4.089844 C 3.320312 -4.101562 3.40625 -4.105469 3.5 -4.105469 C 3.691406 -4.105469 3.828125 -4.074219 3.90625 -4.003906 C 3.984375 -3.9375 4.023438 -3.816406 4.023438 -3.644531 Z M 4.023438 -1.496094 L 4.023438 -0.125 C 3.96875 -0.0742188 3.886719 -0.03125 3.78125 0 C 3.679688 0.0351562 3.554688 0.0507812 3.410156 0.0507812 C 3.261719 0.0507812 3.121094 0.0273438 2.992188 -0.0195312 C 2.863281 -0.0664062 2.753906 -0.175781 2.667969 -0.34375 L 1.863281 -1.878906 C 1.8125 -1.980469 1.761719 -2.078125 1.714844 -2.175781 C 1.667969 -2.273438 1.621094 -2.371094 1.578125 -2.46875 C 1.535156 -2.570312 1.488281 -2.667969 1.445312 -2.769531 L 0.472656 -2.550781 L 0.472656 -3.867188 C 0.527344 -3.941406 0.613281 -4 0.726562 -4.039062 C 0.839844 -4.078125 0.960938 -4.097656 1.089844 -4.097656 C 1.242188 -4.097656 1.382812 -4.074219 1.511719 -4.023438 C 1.644531 -3.976562 1.75 -3.867188 1.832031 -3.703125 L 2.644531 -2.167969 C 2.695312 -2.070312 2.746094 -1.972656 2.792969 -1.875 C 2.839844 -1.777344 2.886719 -1.679688 2.929688 -1.578125 C 2.976562 -1.480469 3.019531 -1.378906 3.058594 -1.277344 Z "/>
</g>
<g id="glyph-0-2">
<path d="M 2.722656 -0.113281 C 2.671875 -0.0703125 2.585938 -0.03125 2.472656 0.00390625 C 2.359375 0.0390625 2.234375 0.0585938 2.097656 0.0585938 C 1.9375 0.0585938 1.800781 0.0351562 1.679688 -0.0117188 C 1.5625 -0.0625 1.480469 -0.128906 1.4375 -0.214844 C 1.375 -0.34375 1.296875 -0.511719 1.210938 -0.722656 C 1.125 -0.933594 1.03125 -1.171875 0.929688 -1.4375 C 0.828125 -1.699219 0.726562 -1.972656 0.628906 -2.253906 C 0.527344 -2.535156 0.4375 -2.816406 0.351562 -3.089844 C 0.269531 -3.367188 0.195312 -3.617188 0.136719 -3.84375 C 0.191406 -3.902344 0.265625 -3.953125 0.371094 -4 C 0.472656 -4.046875 0.582031 -4.066406 0.699219 -4.066406 C 0.84375 -4.066406 0.960938 -4.035156 1.050781 -3.972656 C 1.140625 -3.910156 1.207031 -3.796875 1.25 -3.640625 C 1.386719 -3.171875 1.523438 -2.71875 1.664062 -2.285156 C 1.800781 -1.851562 1.945312 -1.40625 2.097656 -0.945312 L 2.136719 -0.945312 C 2.226562 -1.234375 2.320312 -1.546875 2.417969 -1.882812 C 2.511719 -2.214844 2.609375 -2.558594 2.703125 -2.910156 C 2.800781 -3.261719 2.890625 -3.609375 2.972656 -3.949219 C 3.039062 -3.984375 3.113281 -4.011719 3.195312 -4.035156 C 3.273438 -4.058594 3.359375 -4.066406 3.457031 -4.066406 C 3.601562 -4.066406 3.722656 -4.035156 3.820312 -3.96875 C 3.921875 -3.90625 3.972656 -3.796875 3.972656 -3.652344 C 3.972656 -3.5625 3.949219 -3.425781 3.902344 -3.242188 C 3.855469 -3.054688 3.796875 -2.84375 3.71875 -2.601562 C 3.640625 -2.363281 3.558594 -2.113281 3.464844 -1.855469 C 3.371094 -1.597656 3.277344 -1.351562 3.183594 -1.117188 C 3.089844 -0.882812 3.003906 -0.675781 2.921875 -0.496094 C 2.839844 -0.320312 2.773438 -0.191406 2.722656 -0.113281 Z "/>
</g>
<g id="glyph-0-3">
<path d="M 1.355469 -3.222656 L 1.347656 -4.042969 L 3.40625 -4.042969 C 3.433594 -4 3.457031 -3.945312 3.480469 -3.875 C 3.5 -3.804688 3.511719 -3.730469 3.511719 -3.648438 C 3.511719 -3.503906 3.480469 -3.398438 3.417969 -3.328125 C 3.351562 -3.257812 3.265625 -3.222656 3.152344 -3.222656 Z M 2.289062 -4.042969 L 2.296875 -3.222656 L 0.238281 -3.222656 C 0.210938 -3.265625 0.1875 -3.324219 0.164062 -3.394531 C 0.140625 -3.464844 0.132812 -3.539062 0.132812 -3.621094 C 0.132812 -3.765625 0.164062 -3.875 0.226562 -3.941406 C 0.292969 -4.007812 0.378906 -4.042969 0.488281 -4.042969 Z M 1.300781 -3.402344 L 2.316406 -3.402344 L 2.316406 -0.0078125 C 2.273438 0.00390625 2.210938 0.015625 2.121094 0.03125 C 2.03125 0.0429688 1.941406 0.046875 1.847656 0.046875 C 1.648438 0.046875 1.507812 0.0117188 1.425781 -0.0585938 C 1.34375 -0.132812 1.300781 -0.253906 1.300781 -0.429688 Z "/>
</g>
<g id="glyph-0-4">
<path d="M 0.472656 -2.824219 L 1.460938 -2.824219 L 1.460938 -0.0429688 C 1.421875 -0.03125 1.359375 -0.0195312 1.277344 -0.00390625 C 1.195312 0.0078125 1.105469 0.015625 1.011719 0.015625 C 0.847656 0.015625 0.714844 -0.0351562 0.617188 -0.132812 C 0.519531 -0.230469 0.472656 -0.359375 0.472656 -0.527344 Z M 1.460938 -1.210938 L 0.472656 -1.214844 L 0.472656 -3.5 C 0.472656 -3.667969 0.519531 -3.800781 0.617188 -3.898438 C 0.714844 -3.996094 0.847656 -4.042969 1.011719 -4.042969 C 1.105469 -4.042969 1.195312 -4.035156 1.277344 -4.023438 C 1.359375 -4.011719 1.421875 -3.996094 1.460938 -3.984375 Z M 1.011719 -1.660156 L 1.011719 -2.457031 L 3.023438 -2.457031 C 3.050781 -2.417969 3.078125 -2.363281 3.097656 -2.296875 C 3.121094 -2.230469 3.128906 -2.15625 3.128906 -2.074219 C 3.128906 -1.929688 3.097656 -1.828125 3.035156 -1.761719 C 2.972656 -1.695312 2.886719 -1.660156 2.777344 -1.660156 Z M 1.011719 0.015625 L 1.011719 -0.792969 L 3.246094 -0.792969 C 3.273438 -0.75 3.296875 -0.695312 3.316406 -0.625 C 3.339844 -0.554688 3.351562 -0.480469 3.351562 -0.398438 C 3.351562 -0.253906 3.320312 -0.152344 3.257812 -0.0859375 C 3.195312 -0.0195312 3.109375 0.015625 2.996094 0.015625 Z M 1.011719 -3.238281 L 1.011719 -4.042969 L 3.214844 -4.042969 C 3.242188 -4 3.269531 -3.949219 3.289062 -3.878906 C 3.3125 -3.8125 3.324219 -3.738281 3.324219 -3.65625 C 3.324219 -3.515625 3.292969 -3.410156 3.226562 -3.339844 C 3.164062 -3.273438 3.078125 -3.238281 2.96875 -3.238281 Z "/>
</g>
</g>
</defs>
<g fill="rgb(20%, 19.607843%, 24.313725%)" fill-opacity="1">
<use xlink:href="#glyph-0-0" x="30" y="27.1875"/>
<use xlink:href="#glyph-0-1" x="32" y="27.1875"/>
<use xlink:href="#glyph-0-2" x="36" y="27.1875"/>
<use xlink:href="#glyph-0-0" x="40" y="27.1875"/>
<use xlink:href="#glyph-0-3" x="42" y="27.1875"/>
<use xlink:href="#glyph-0-4" x="46" y="27.1875"/>
</g>
</svg>
