<?xml version="1.0" encoding="UTF-8"?>
<svg xmlns="http://www.w3.org/2000/svg" xmlns:xlink="http://www.w3.org/1999/xlink" width="1920" height="1080" viewBox="0 0 1920 1080">
<defs>
<g>
<g id="glyph-0-0">
<path d="M 1.113281 0.222656 C 1.050781 0.234375 0.992188 0.246094 0.945312 0.257812 C 0.894531 0.273438 0.832031 0.28125 0.757812 0.28125 C 0.679688 0.28125 0.617188 0.257812 0.574219 0.210938 C 0.53125 0.164062 0.507812 0.113281 0.507812 0.0585938 C 0.507812 0.0117188 0.515625 -0.046875 0.53125 -0.117188 C 0.546875 -0.191406 0.554688 -0.265625 0.554688 -0.339844 C 0.539062 -0.617188 0.519531 -0.894531 0.492188 -1.171875 C 0.46875 -1.445312 0.445312 -1.695312 0.421875 -1.925781 C 0.398438 -2.152344 0.375 -2.347656 0.359375 -2.507812 C 0.339844 -2.667969 0.332031 -2.78125 0.332031 -2.839844 C 0.332031 -2.878906 0.34375 -2.914062 0.363281 -2.949219 C 0.382812 -2.980469 0.40625 -3.011719 0.441406 -3.039062 C 0.476562 -3.0625 0.519531 -3.082031 0.566406 -3.097656 C 0.613281 -3.113281 0.660156 -3.117188 0.714844 -3.117188 C 0.816406 -3.117188 0.890625 -3.101562 0.9375 -3.070312 C 0.984375 -3.039062 1.015625 -2.988281 1.027344 -2.921875 C 1.085938 -2.453125 1.128906 -2.023438 1.15625 -1.636719 C 1.183594 -1.246094 1.203125 -0.882812 1.214844 -0.539062 C 1.214844 -0.488281 1.226562 -0.453125 1.253906 -0.425781 C 1.28125 -0.398438 1.316406 -0.386719 1.359375 -0.386719 C 1.445312 -0.386719 1.535156 -0.390625 1.625 -0.402344 C 1.714844 -0.410156 1.800781 -0.421875 1.890625 -0.433594 C 1.980469 -0.445312 2.070312 -0.453125 2.15625 -0.464844 C 2.246094 -0.472656 2.328125 -0.480469 2.414062 -0.480469 C 2.46875 -0.480469 2.511719 -0.472656 2.542969 -0.460938 C 2.578125 -0.445312 2.605469 -0.429688 2.621094 -0.40625 C 2.640625 -0.386719 2.652344 -0.359375 2.65625 -0.332031 C 2.664062 -0.304688 2.667969 -0.28125 2.667969 -0.253906 C 2.667969 -0.210938 2.660156 -0.171875 2.652344 -0.128906 C 2.644531 -0.0898438 2.628906 -0.0507812 2.609375 -0.0195312 C 2.585938 0.015625 2.554688 0.0429688 2.519531 0.0664062 C 2.484375 0.0898438 2.4375 0.101562 2.378906 0.109375 C 2.113281 0.132812 1.867188 0.152344 1.648438 0.167969 C 1.429688 0.179688 1.25 0.199219 1.113281 0.222656 Z "/>
</g>
<g id="glyph-0-1">
<path d="M 1.808594 0.40625 C 1.570312 0.40625 1.351562 0.367188 1.152344 0.285156 C 0.953125 0.207031 0.785156 0.09375 0.640625 -0.0507812 C 0.496094 -0.195312 0.386719 -0.367188 0.304688 -0.566406 C 0.226562 -0.765625 0.1875 -0.988281 0.1875 -1.226562 C 0.1875 -1.355469 0.195312 -1.484375 0.21875 -1.601562 C 0.242188 -1.722656 0.273438 -1.835938 0.3125 -1.941406 C 0.328125 -1.980469 0.339844 -2.011719 0.339844 -2.027344 C 0.339844 -2.050781 0.332031 -2.070312 0.324219 -2.089844 C 0.3125 -2.109375 0.300781 -2.128906 0.285156 -2.152344 C 0.273438 -2.171875 0.261719 -2.195312 0.25 -2.21875 C 0.238281 -2.242188 0.234375 -2.269531 0.234375 -2.300781 C 0.234375 -2.390625 0.285156 -2.480469 0.390625 -2.570312 C 0.496094 -2.65625 0.632812 -2.734375 0.804688 -2.804688 C 0.976562 -2.871094 1.167969 -2.929688 1.386719 -2.96875 C 1.605469 -3.011719 1.828125 -3.035156 2.054688 -3.035156 C 2.335938 -3.035156 2.585938 -3 2.8125 -2.925781 C 3.035156 -2.855469 3.226562 -2.753906 3.382812 -2.617188 C 3.539062 -2.484375 3.664062 -2.324219 3.746094 -2.132812 C 3.832031 -1.941406 3.875 -1.726562 3.875 -1.488281 C 3.875 -1.222656 3.820312 -0.972656 3.714844 -0.742188 C 3.609375 -0.511719 3.460938 -0.308594 3.277344 -0.140625 C 3.089844 0.0273438 2.871094 0.164062 2.621094 0.261719 C 2.367188 0.359375 2.097656 0.40625 1.808594 0.40625 Z M 3.21875 -1.359375 C 3.21875 -1.53125 3.191406 -1.683594 3.132812 -1.816406 C 3.074219 -1.949219 2.988281 -2.0625 2.878906 -2.15625 C 2.765625 -2.25 2.632812 -2.320312 2.46875 -2.367188 C 2.308594 -2.417969 2.125 -2.441406 1.921875 -2.441406 C 1.5625 -2.441406 1.292969 -2.351562 1.113281 -2.167969 C 0.929688 -1.988281 0.839844 -1.71875 0.839844 -1.359375 C 0.839844 -1.1875 0.867188 -1.027344 0.921875 -0.882812 C 0.976562 -0.738281 1.050781 -0.617188 1.148438 -0.511719 C 1.246094 -0.410156 1.363281 -0.328125 1.5 -0.273438 C 1.636719 -0.214844 1.785156 -0.1875 1.945312 -0.1875 C 2.132812 -0.1875 2.304688 -0.214844 2.460938 -0.273438 C 2.617188 -0.328125 2.75 -0.410156 2.863281 -0.515625 C 2.976562 -0.617188 3.0625 -0.742188 3.125 -0.886719 C 3.1875 -1.03125 3.21875 -1.1875 3.21875 -1.359375 Z "/>
</g>
<g id="glyph-0-2">
<path d="M 3.199219 -3.078125 C 3.199219 -2.996094 3.171875 -2.914062 3.117188 -2.84375 C 3.0625 -2.769531 2.992188 -2.695312 2.910156 -2.628906 C 2.824219 -2.558594 2.734375 -2.492188 2.636719 -2.425781 C 2.539062 -2.359375 2.449219 -2.292969 2.363281 -2.226562 C 2.28125 -2.160156 2.210938 -2.089844 2.15625 -2.023438 C 2.101562 -1.953125 2.074219 -1.878906 2.074219 -1.800781 C 2.074219 -1.734375 2.121094 -1.671875 2.210938 -1.613281 C 2.300781 -1.550781 2.433594 -1.488281 2.605469 -1.429688 C 2.777344 -1.367188 2.984375 -1.304688 3.226562 -1.242188 C 3.46875 -1.179688 3.742188 -1.109375 4.046875 -1.039062 C 4.199219 -0.996094 4.273438 -0.921875 4.273438 -0.808594 C 4.273438 -0.765625 4.265625 -0.722656 4.242188 -0.679688 C 4.222656 -0.640625 4.195312 -0.601562 4.160156 -0.570312 C 4.125 -0.539062 4.085938 -0.515625 4.042969 -0.496094 C 3.996094 -0.476562 3.953125 -0.464844 3.90625 -0.464844 C 3.796875 -0.464844 3.675781 -0.480469 3.535156 -0.515625 C 3.398438 -0.546875 3.257812 -0.585938 3.109375 -0.636719 C 2.960938 -0.683594 2.8125 -0.734375 2.667969 -0.792969 C 2.519531 -0.851562 2.378906 -0.902344 2.25 -0.949219 C 2.121094 -0.996094 2.007812 -1.039062 1.910156 -1.070312 C 1.8125 -1.101562 1.734375 -1.121094 1.6875 -1.121094 C 1.648438 -1.121094 1.609375 -1.101562 1.574219 -1.066406 C 1.539062 -1.03125 1.503906 -0.980469 1.476562 -0.917969 C 1.445312 -0.855469 1.421875 -0.78125 1.402344 -0.695312 C 1.382812 -0.609375 1.371094 -0.515625 1.359375 -0.414062 C 1.347656 -0.296875 1.308594 -0.214844 1.238281 -0.15625 C 1.167969 -0.101562 1.070312 -0.0742188 0.949219 -0.0742188 C 0.820312 -0.0742188 0.746094 -0.132812 0.726562 -0.253906 C 0.695312 -0.4375 0.652344 -0.621094 0.605469 -0.8125 C 0.558594 -1 0.507812 -1.1875 0.453125 -1.378906 C 0.398438 -1.566406 0.339844 -1.753906 0.273438 -1.9375 C 0.210938 -2.121094 0.144531 -2.296875 0.0742188 -2.46875 C 0.0585938 -2.503906 0.046875 -2.539062 0.0390625 -2.570312 C 0.03125 -2.601562 0.0273438 -2.632812 0.0273438 -2.667969 C 0.0273438 -2.695312 0.0351562 -2.722656 0.0507812 -2.746094 C 0.0703125 -2.769531 0.09375 -2.792969 0.125 -2.8125 C 0.15625 -2.832031 0.1875 -2.847656 0.230469 -2.859375 C 0.269531 -2.871094 0.3125 -2.875 0.355469 -2.875 C 0.445312 -2.875 0.515625 -2.855469 0.566406 -2.820312 C 0.617188 -2.78125 0.671875 -2.726562 0.726562 -2.652344 C 0.753906 -2.617188 0.777344 -2.574219 0.800781 -2.515625 C 0.824219 -2.457031 0.847656 -2.394531 0.871094 -2.332031 C 0.890625 -2.265625 0.914062 -2.199219 0.933594 -2.132812 C 0.957031 -2.066406 0.976562 -2.007812 0.996094 -1.953125 C 1.019531 -1.902344 1.039062 -1.859375 1.058594 -1.824219 C 1.078125 -1.789062 1.101562 -1.773438 1.121094 -1.773438 C 1.136719 -1.773438 1.152344 -1.78125 1.164062 -1.796875 C 1.175781 -1.8125 1.191406 -1.835938 1.207031 -1.867188 C 1.320312 -2.101562 1.445312 -2.3125 1.578125 -2.507812 C 1.714844 -2.703125 1.851562 -2.867188 1.992188 -3.007812 C 2.132812 -3.144531 2.273438 -3.25 2.417969 -3.328125 C 2.558594 -3.402344 2.695312 -3.441406 2.824219 -3.441406 C 2.878906 -3.441406 2.925781 -3.433594 2.972656 -3.414062 C 3.019531 -3.394531 3.058594 -3.371094 3.089844 -3.335938 C 3.125 -3.304688 3.152344 -3.265625 3.171875 -3.222656 C 3.191406 -3.175781 3.199219 -3.128906 3.199219 -3.078125 Z "/>
</g>
</g>
</defs>
<g fill="rgb(20%, 19.607843%, 24.313725%)" fill-opacity="1">
<use xlink:href="#glyph-0-0" x="30" y="25.140625"/>
<use xlink:href="#glyph-0-1" x="32" y="25.140625"/>
<use xlink:href="#glyph-0-1" x="36" y="25.140625"/>
<use xlink:href="#glyph-0-2" x="40" y="25.140625"/>
</g>
</svg>
