<?xml version="1.0" encoding="UTF-8"?>
<svg xmlns="http://www.w3.org/2000/svg" xmlns:xlink="http://www.w3.org/1999/xlink" width="1920" height="1080" viewBox="0 0 1920 1080">
<defs>
<g>
<g id="glyph-0-0">
<path d="M 3.742188 -9.519531 C 3.980469 -9.519531 4.183594 -9.414062 4.347656 -9.199219 C 4.511719 -8.988281 4.722656 -8.550781 4.984375 -7.886719 C 5.589844 -6.316406 6.183594 -3.855469 6.761719 -0.503906 C 6.769531 -0.464844 6.773438 -0.410156 6.773438 -0.339844 C 6.773438 -0.265625 6.730469 -0.191406 6.636719 -0.109375 C 6.546875 -0.0273438 6.414062 0.015625 6.246094 0.015625 C 6.078125 0.015625 5.9375 -0.0273438 5.820312 -0.109375 C 5.707031 -0.191406 5.628906 -0.324219 5.589844 -0.511719 C 5.550781 -0.699219 5.480469 -1.070312 5.375 -1.617188 C 5.144531 -2.839844 4.988281 -3.476562 4.910156 -3.523438 C 4.796875 -3.589844 4.414062 -3.664062 3.761719 -3.742188 C 3.113281 -3.820312 2.683594 -3.855469 2.46875 -3.855469 C 2.257812 -3.855469 2.132812 -3.835938 2.09375 -3.800781 C 1.921875 -3.644531 1.683594 -2.476562 1.386719 -0.289062 C 1.347656 -0.105469 1.164062 -0.015625 0.835938 -0.015625 C 0.507812 -0.015625 0.347656 -0.152344 0.347656 -0.433594 C 0.347656 -1.125 0.601562 -2.449219 1.113281 -4.40625 C 1.621094 -6.359375 2.046875 -7.65625 2.382812 -8.292969 C 2.808594 -9.109375 3.257812 -9.519531 3.742188 -9.519531 Z M 3.683594 -7.914062 C 3.539062 -7.914062 3.289062 -7.488281 2.933594 -6.636719 C 2.578125 -5.785156 2.398438 -5.257812 2.398438 -5.054688 C 2.398438 -5.007812 2.40625 -4.972656 2.425781 -4.953125 C 2.503906 -4.875 2.808594 -4.808594 3.335938 -4.753906 C 3.867188 -4.695312 4.21875 -4.664062 4.390625 -4.664062 C 4.5625 -4.664062 4.660156 -4.675781 4.679688 -4.703125 C 4.699219 -4.726562 4.707031 -4.804688 4.707031 -4.933594 C 4.707031 -5.0625 4.578125 -5.59375 4.320312 -6.523438 C 4.058594 -7.453125 3.847656 -7.914062 3.683594 -7.914062 Z "/>
</g>
<g id="glyph-0-1">
<path d="M 6.109375 -9.476562 C 6.207031 -9.535156 6.332031 -9.5625 6.484375 -9.5625 C 6.640625 -9.5625 6.777344 -9.496094 6.90625 -9.367188 C 7.03125 -9.238281 7.09375 -9.085938 7.09375 -8.914062 C 7.09375 -5.148438 7.109375 -2.871094 7.144531 -2.085938 C 7.175781 -1.300781 7.191406 -0.898438 7.191406 -0.882812 C 7.191406 -0.667969 7.136719 -0.46875 7.019531 -0.28125 C 6.902344 -0.09375 6.777344 0 6.636719 0 C 6.496094 0 6.390625 -0.0078125 6.320312 -0.0234375 C 6.246094 -0.0351562 6.183594 -0.0546875 6.125 -0.0703125 C 6.066406 -0.0898438 6.007812 -0.128906 5.949219 -0.1875 L 5.804688 -0.332031 C 5.765625 -0.371094 5.71875 -0.445312 5.65625 -0.554688 C 5.59375 -0.667969 5.542969 -0.757812 5.503906 -0.824219 C 5.464844 -0.890625 5.40625 -1.007812 5.324219 -1.175781 C 5.242188 -1.34375 5.0625 -1.691406 4.789062 -2.210938 C 4.515625 -2.730469 4.265625 -3.195312 4.042969 -3.609375 C 3.28125 -5.007812 2.574219 -6.109375 1.921875 -6.917969 C 1.921875 -3.789062 1.835938 -1.617188 1.660156 -0.40625 C 1.632812 -0.175781 1.453125 -0.0585938 1.125 -0.0585938 C 0.972656 -0.0585938 0.84375 -0.0976562 0.742188 -0.171875 C 0.640625 -0.25 0.59375 -0.375 0.59375 -0.550781 C 0.59375 -0.722656 0.628906 -1.675781 0.699219 -3.410156 C 0.773438 -5.144531 0.808594 -6.222656 0.808594 -6.652344 C 0.808594 -7.082031 0.808594 -7.351562 0.808594 -7.46875 C 0.808594 -8.160156 0.863281 -8.550781 0.96875 -8.636719 C 1.074219 -8.722656 1.183594 -8.769531 1.300781 -8.769531 C 1.828125 -8.769531 2.636719 -7.902344 3.726562 -6.167969 C 3.9375 -5.832031 4.34375 -5.125 4.941406 -4.050781 C 5.539062 -2.976562 5.894531 -2.316406 6.007812 -2.066406 L 5.835938 -8.058594 C 5.835938 -8.886719 5.925781 -9.359375 6.109375 -9.476562 Z "/>
</g>
<g id="glyph-0-2">
<path d="M 0.636719 -9.375 L 6.484375 -9.460938 C 6.765625 -9.375 6.90625 -9.234375 6.90625 -9.042969 C 6.90625 -8.5625 6.707031 -8.320312 6.3125 -8.320312 C 5.589844 -8.320312 4.824219 -8.300781 4.015625 -8.261719 C 3.96875 -7.433594 3.941406 -6.808594 3.941406 -6.390625 C 3.941406 -5.972656 3.941406 -5.707031 3.941406 -5.589844 L 4 -0.519531 C 4 -0.222656 3.925781 -0.046875 3.769531 0 C 3.652344 0.0390625 3.511719 0.0585938 3.335938 0.0585938 C 3.058594 0.0585938 2.902344 -0.101562 2.875 -0.417969 C 2.816406 -1.160156 2.789062 -2.542969 2.789062 -4.570312 C 2.789062 -6.597656 2.816406 -7.820312 2.875 -8.234375 C 2.671875 -8.222656 2.375 -8.21875 1.980469 -8.21875 C 1.585938 -8.21875 1.09375 -8.222656 0.503906 -8.234375 C 0.351562 -8.234375 0.230469 -8.28125 0.144531 -8.378906 C 0.0585938 -8.472656 0.015625 -8.59375 0.015625 -8.730469 C 0.015625 -8.871094 0.0742188 -9.007812 0.195312 -9.144531 C 0.316406 -9.277344 0.460938 -9.355469 0.636719 -9.375 Z "/>
</g>
<g id="glyph-0-3">
<path d="M 4.421875 -9.605469 C 5.09375 -9.605469 5.667969 -9.390625 6.140625 -8.957031 C 7.0625 -8.128906 7.527344 -6.820312 7.527344 -5.035156 C 7.527344 -3.246094 7.015625 -1.84375 5.996094 -0.824219 C 5.464844 -0.3125 4.851562 -0.0351562 4.160156 0.015625 C 3.246094 0.015625 2.53125 -0.296875 2.023438 -0.925781 C 1.511719 -1.550781 1.148438 -2.25 0.933594 -3.027344 C 0.714844 -3.800781 0.605469 -4.550781 0.605469 -5.273438 C 0.605469 -6.503906 0.898438 -7.519531 1.488281 -8.320312 C 2.105469 -9.175781 3.082031 -9.605469 4.421875 -9.605469 Z M 4.320312 -8.40625 C 3.027344 -8.40625 2.222656 -7.796875 1.90625 -6.570312 C 1.808594 -6.246094 1.761719 -5.824219 1.761719 -5.316406 C 1.761719 -4.804688 1.859375 -4.214844 2.050781 -3.539062 C 2.3125 -2.632812 2.695312 -2 3.207031 -1.632812 C 3.503906 -1.402344 3.867188 -1.285156 4.289062 -1.285156 C 4.714844 -1.285156 5.09375 -1.476562 5.429688 -1.855469 C 5.769531 -2.234375 6 -2.71875 6.125 -3.308594 C 6.25 -3.894531 6.3125 -4.488281 6.3125 -5.085938 C 6.3125 -6.144531 6.160156 -6.960938 5.855469 -7.539062 C 5.554688 -8.117188 5.042969 -8.40625 4.320312 -8.40625 Z "/>
</g>
<g id="glyph-0-4">
<path d="M 7.410156 -9.621094 C 7.640625 -9.621094 7.789062 -9.453125 7.859375 -9.113281 C 7.90625 -7.542969 7.929688 -5.832031 7.929688 -3.980469 C 7.929688 -2.125 7.921875 -1.054688 7.902344 -0.765625 C 7.882812 -0.476562 7.820312 -0.273438 7.714844 -0.160156 C 7.609375 -0.0429688 7.414062 0.015625 7.136719 0.015625 C 6.886719 0.015625 6.761719 -0.140625 6.761719 -0.449219 L 6.761719 -3.710938 C 6.761719 -4.242188 6.75 -4.785156 6.730469 -5.34375 C 6.710938 -5.902344 6.703125 -6.253906 6.703125 -6.398438 C 6.375 -5.839844 5.941406 -5.378906 5.402344 -5.019531 C 4.863281 -4.660156 4.261719 -4.476562 3.597656 -4.476562 C 2.933594 -4.476562 2.375 -4.753906 1.921875 -5.300781 C 1.902344 -4.714844 1.890625 -4.019531 1.890625 -3.214844 C 1.890625 -2.410156 1.898438 -1.566406 1.90625 -0.679688 C 1.90625 -0.4375 1.828125 -0.261719 1.667969 -0.152344 C 1.507812 -0.0429688 1.328125 0.015625 1.125 0.015625 C 0.867188 0.015625 0.738281 -0.144531 0.738281 -0.460938 C 0.746094 -1.328125 0.75 -2.699219 0.75 -4.578125 L 0.75 -8.679688 C 0.75 -8.84375 0.804688 -9.003906 0.917969 -9.15625 C 1.027344 -9.3125 1.15625 -9.390625 1.308594 -9.390625 C 1.457031 -9.390625 1.59375 -9.347656 1.71875 -9.265625 C 1.84375 -9.183594 1.910156 -9.0625 1.921875 -8.898438 C 1.960938 -7.828125 2.132812 -7.035156 2.441406 -6.515625 C 2.75 -5.996094 3.113281 -5.734375 3.539062 -5.734375 C 3.960938 -5.734375 4.324219 -5.804688 4.628906 -5.945312 C 4.933594 -6.082031 5.183594 -6.246094 5.378906 -6.425781 C 5.578125 -6.609375 5.769531 -6.871094 5.949219 -7.207031 C 6.210938 -7.6875 6.460938 -8.28125 6.703125 -8.984375 C 6.847656 -9.40625 7.082031 -9.621094 7.410156 -9.621094 Z "/>
</g>
<g id="glyph-0-5">
<path d="M 2.570312 -3.496094 L 2.585938 -4.230469 C 2.585938 -4.480469 2.507812 -4.726562 2.347656 -4.96875 C 2.1875 -5.210938 1.804688 -5.90625 1.199219 -7.0625 C 0.59375 -8.21875 0.289062 -8.871094 0.289062 -9.019531 C 0.289062 -9.167969 0.351562 -9.304688 0.476562 -9.425781 C 0.601562 -9.546875 0.726562 -9.605469 0.84375 -9.605469 C 0.964844 -9.605469 1.109375 -9.496094 1.277344 -9.273438 C 1.445312 -9.050781 1.777344 -8.46875 2.273438 -7.527344 C 2.769531 -6.582031 3.058594 -6.0625 3.132812 -5.964844 C 4.058594 -7.601562 4.800781 -8.757812 5.359375 -9.433594 C 5.492188 -9.558594 5.601562 -9.621094 5.683594 -9.621094 C 5.765625 -9.621094 5.824219 -9.609375 5.863281 -9.589844 C 6.09375 -9.496094 6.210938 -9.367188 6.210938 -9.207031 C 6.210938 -9.050781 6.171875 -8.914062 6.09375 -8.796875 C 6.019531 -8.679688 5.804688 -8.378906 5.460938 -7.886719 C 4.949219 -7.175781 4.507812 -6.453125 4.136719 -5.726562 C 3.765625 -5 3.582031 -4.554688 3.582031 -4.390625 L 3.582031 -1.746094 L 3.625 -0.59375 C 3.625 -0.382812 3.566406 -0.234375 3.453125 -0.152344 C 3.335938 -0.0703125 3.195312 -0.0273438 3.027344 -0.0273438 C 2.859375 -0.0273438 2.746094 -0.121094 2.6875 -0.304688 C 2.628906 -0.488281 2.59375 -0.726562 2.585938 -1.027344 C 2.574219 -1.324219 2.570312 -1.761719 2.570312 -2.339844 Z "/>
</g>
<g id="glyph-0-6">
<rect x="0" y="0" width="0" height="0" mask="url(#mask-0)"/>
</g>
<g id="glyph-0-7">
<path d="M 3.035156 -9.359375 L 4.636719 -9.390625 C 5.347656 -9.390625 5.707031 -9.199219 5.707031 -8.824219 C 5.707031 -8.691406 5.6875 -8.597656 5.648438 -8.542969 C 5.609375 -8.492188 5.582031 -8.449219 5.5625 -8.421875 C 5.542969 -8.390625 5.503906 -8.367188 5.445312 -8.347656 C 5.328125 -8.308594 5.234375 -8.285156 5.15625 -8.277344 C 5.078125 -8.265625 5.027344 -8.261719 4.996094 -8.261719 C 4.890625 -8.242188 4.714844 -8.226562 4.464844 -8.21875 C 4.214844 -8.210938 3.847656 -8.203125 3.371094 -8.203125 C 2.894531 -8.203125 2.3125 -8.222656 1.617188 -8.261719 L 1.617188 -5.605469 L 4.5625 -5.605469 C 4.667969 -5.605469 4.769531 -5.554688 4.859375 -5.460938 C 4.953125 -5.363281 4.996094 -5.257812 4.996094 -5.140625 C 4.996094 -4.699219 4.808594 -4.476562 4.433594 -4.476562 L 1.617188 -4.476562 L 1.675781 -0.691406 C 1.675781 -0.203125 1.507812 0.0429688 1.175781 0.0429688 C 0.84375 0.0429688 0.648438 -0.179688 0.59375 -0.621094 C 0.5625 -0.765625 0.546875 -1.992188 0.542969 -4.296875 C 0.539062 -6.601562 0.523438 -7.929688 0.503906 -8.277344 C 0.148438 -8.238281 -0.0273438 -8.441406 -0.0273438 -8.882812 C -0.0273438 -9 0.0195312 -9.125 0.117188 -9.265625 C 0.210938 -9.40625 0.296875 -9.480469 0.367188 -9.488281 C 0.441406 -9.5 0.53125 -9.503906 0.644531 -9.503906 C 0.753906 -9.503906 1.027344 -9.484375 1.457031 -9.445312 C 2.054688 -9.386719 2.582031 -9.359375 3.035156 -9.359375 Z "/>
</g>
<g id="glyph-0-8">
<path d="M 4.78125 -9.589844 C 5.242188 -9.589844 5.703125 -9.476562 6.160156 -9.246094 C 6.617188 -9.015625 6.847656 -8.753906 6.847656 -8.464844 C 6.847656 -8.023438 6.664062 -7.800781 6.296875 -7.800781 C 6.164062 -7.800781 5.925781 -7.886719 5.589844 -8.058594 C 5.253906 -8.234375 4.96875 -8.320312 4.738281 -8.320312 C 3.910156 -8.320312 3.21875 -7.949219 2.664062 -7.207031 C 2.109375 -6.464844 1.835938 -5.523438 1.835938 -4.375 C 1.835938 -3.519531 2.023438 -2.769531 2.398438 -2.125 C 2.773438 -1.480469 3.21875 -1.15625 3.734375 -1.15625 C 4.25 -1.15625 4.652344 -1.328125 4.945312 -1.667969 C 5.242188 -2.011719 5.386719 -2.398438 5.386719 -2.832031 C 5.386719 -3.070312 5.371094 -3.273438 5.335938 -3.429688 C 5.304688 -3.589844 5.21875 -3.734375 5.085938 -3.863281 C 4.949219 -3.992188 4.769531 -4.058594 4.550781 -4.058594 C 4.328125 -4.058594 4.117188 -4.105469 3.921875 -4.203125 C 3.722656 -4.300781 3.625 -4.429688 3.625 -4.59375 C 3.625 -4.757812 3.671875 -4.910156 3.769531 -5.054688 C 3.867188 -5.199219 3.996094 -5.285156 4.160156 -5.316406 C 4.816406 -5.316406 5.253906 -5.25 5.480469 -5.113281 C 5.707031 -4.976562 5.878906 -4.867188 5.996094 -4.78125 C 6.109375 -4.695312 6.207031 -4.550781 6.285156 -4.347656 C 6.359375 -4.144531 6.421875 -3.976562 6.464844 -3.84375 C 6.507812 -3.707031 6.539062 -3.492188 6.558594 -3.191406 C 6.578125 -2.691406 6.585938 -2.105469 6.585938 -1.4375 C 6.585938 -0.769531 6.539062 -0.355469 6.441406 -0.203125 C 6.355469 -0.078125 6.210938 -0.0117188 6.007812 -0.0078125 C 5.804688 -0.00390625 5.667969 -0.0429688 5.589844 -0.128906 C 5.511719 -0.214844 5.464844 -0.410156 5.445312 -0.707031 C 5.214844 -0.503906 4.921875 -0.335938 4.570312 -0.195312 C 4.21875 -0.0546875 3.910156 0.015625 3.640625 0.015625 C 2.792969 0.015625 2.078125 -0.4375 1.503906 -1.335938 C 0.925781 -2.238281 0.636719 -3.320312 0.636719 -4.59375 C 0.636719 -5.265625 0.746094 -5.929688 0.96875 -6.578125 C 1.191406 -7.230469 1.488281 -7.777344 1.863281 -8.21875 C 2.652344 -9.132812 3.625 -9.589844 4.78125 -9.589844 Z "/>
</g>
<g id="glyph-0-9">
<path d="M 0.792969 -4.96875 C 0.660156 -5.054688 0.59375 -5.179688 0.59375 -5.34375 C 0.59375 -5.507812 0.644531 -5.65625 0.75 -5.792969 C 0.710938 -6.753906 0.691406 -7.769531 0.691406 -8.839844 C 0.75 -9.070312 0.839844 -9.238281 0.960938 -9.34375 C 1.082031 -9.449219 1.257812 -9.519531 1.488281 -9.546875 C 2.757812 -9.488281 4.136719 -9.460938 5.617188 -9.460938 C 5.984375 -9.382812 6.167969 -9.226562 6.167969 -8.984375 C 6.167969 -8.578125 5.773438 -8.34375 4.984375 -8.277344 C 4.773438 -8.265625 4.539062 -8.261719 4.289062 -8.261719 L 3.351562 -8.261719 C 3.167969 -8.261719 2.664062 -8.300781 1.835938 -8.378906 C 1.835938 -7.175781 1.855469 -6.347656 1.890625 -5.894531 C 2.402344 -5.882812 3.386719 -5.878906 4.839844 -5.878906 C 5.1875 -5.8125 5.359375 -5.65625 5.359375 -5.410156 C 5.359375 -5.164062 5.21875 -4.972656 4.941406 -4.839844 C 4.910156 -4.820312 4.859375 -4.800781 4.78125 -4.78125 L 2.28125 -4.824219 C 2.128906 -4.824219 2.003906 -4.816406 1.90625 -4.796875 L 1.964844 -2.3125 C 1.964844 -1.753906 1.949219 -1.351562 1.921875 -1.113281 L 5.273438 -1.15625 C 5.582031 -1.109375 5.734375 -0.976562 5.734375 -0.765625 C 5.734375 -0.621094 5.667969 -0.476562 5.539062 -0.332031 C 5.410156 -0.1875 5.257812 -0.0976562 5.085938 -0.0585938 L 1.386719 0 C 1.164062 0 1.011719 -0.0390625 0.925781 -0.121094 C 0.839844 -0.203125 0.792969 -0.34375 0.792969 -0.535156 C 0.832031 -0.804688 0.851562 -1.238281 0.851562 -1.835938 L 0.851562 -2.84375 Z "/>
</g>
</g>
<image id="source-11" x="0" y="0" width="0" height="0"/>
<mask id="mask-0">
<use xlink:href="#source-11"/>
</mask>
</defs>
<g fill="rgb(20%, 19.607843%, 24.313725%)" fill-opacity="1">
<use xlink:href="#glyph-0-0" x="30" y="35.050781"/>
<use xlink:href="#glyph-0-1" x="37" y="35.050781"/>
<use xlink:href="#glyph-0-0" x="45" y="35.050781"/>
<use xlink:href="#glyph-0-2" x="52" y="35.050781"/>
<use xlink:href="#glyph-0-3" x="59" y="35.050781"/>
<use xlink:href="#glyph-0-4" x="67" y="35.050781"/>
<use xlink:href="#glyph-0-5" x="76" y="35.050781"/>
<use xlink:href="#glyph-0-6" x="82" y="35.050781"/>
<use xlink:href="#glyph-0-3" x="85" y="35.050781"/>
<use xlink:href="#glyph-0-7" x="93" y="35.050781"/>
<use xlink:href="#glyph-0-6" x="98" y="35.050781"/>
<use xlink:href="#glyph-0-0" x="101" y="35.050781"/>
<use xlink:href="#glyph-0-1" x="108" y="35.050781"/>
<use xlink:href="#glyph-0-6" x="116" y="35.050781"/>
<use xlink:href="#glyph-0-0" x="119" y="35.050781"/>
<use xlink:href="#glyph-0-8" x="126" y="35.050781"/>
<use xlink:href="#glyph-0-9" x="133" y="35.050781"/>
<use xlink:href="#glyph-0-1" x="139" y="35.050781"/>
<use xlink:href="#glyph-0-2" x="147" y="35.050781"/>
</g>
</svg>
