<?xml version="1.0" encoding="UTF-8"?>
<svg xmlns="http://www.w3.org/2000/svg" xmlns:xlink="http://www.w3.org/1999/xlink" width="1920" height="1080" viewBox="0 0 1920 1080">
<defs>
<g>
<g id="glyph-0-0">
<path d="M 3.109375 -2.023438 C 3.109375 -1.59375 3.003906 -1.269531 2.792969 -1.050781 C 2.582031 -0.832031 2.300781 -0.726562 1.945312 -0.726562 C 1.871094 -0.726562 1.789062 -0.726562 1.703125 -0.734375 C 1.621094 -0.742188 1.546875 -0.753906 1.484375 -0.765625 L 1.484375 -3.289062 C 1.554688 -3.300781 1.628906 -3.308594 1.703125 -3.316406 C 1.777344 -3.320312 1.855469 -3.324219 1.933594 -3.324219 C 2.164062 -3.324219 2.371094 -3.277344 2.546875 -3.179688 C 2.722656 -3.085938 2.859375 -2.941406 2.960938 -2.75 C 3.058594 -2.558594 3.109375 -2.316406 3.109375 -2.023438 Z M 4.152344 -2.039062 C 4.152344 -2.515625 4.058594 -2.910156 3.867188 -3.222656 C 3.675781 -3.53125 3.410156 -3.765625 3.070312 -3.917969 C 2.730469 -4.070312 2.332031 -4.148438 1.875 -4.148438 C 1.707031 -4.148438 1.519531 -4.136719 1.316406 -4.121094 C 1.113281 -4.101562 0.921875 -4.0625 0.742188 -4.003906 C 0.660156 -3.976562 0.597656 -3.9375 0.546875 -3.890625 C 0.496094 -3.84375 0.472656 -3.773438 0.472656 -3.6875 L 0.472656 -0.496094 C 0.472656 -0.285156 0.585938 -0.136719 0.816406 -0.0546875 C 0.992188 0.0078125 1.183594 0.0507812 1.398438 0.0703125 C 1.613281 0.0898438 1.792969 0.0976562 1.941406 0.0976562 C 2.386719 0.0976562 2.773438 0.0195312 3.105469 -0.136719 C 3.4375 -0.292969 3.695312 -0.53125 3.878906 -0.847656 C 4.0625 -1.164062 4.152344 -1.558594 4.152344 -2.039062 Z "/>
</g>
<g id="glyph-0-1">
<path d="M 4.398438 -2.027344 C 4.398438 -1.566406 4.308594 -1.175781 4.128906 -0.855469 C 3.949219 -0.539062 3.703125 -0.296875 3.390625 -0.132812 C 3.078125 0.03125 2.726562 0.113281 2.328125 0.113281 C 1.933594 0.113281 1.582031 0.03125 1.269531 -0.132812 C 0.957031 -0.296875 0.710938 -0.539062 0.53125 -0.855469 C 0.351562 -1.175781 0.265625 -1.566406 0.265625 -2.027344 C 0.265625 -2.488281 0.355469 -2.878906 0.539062 -3.195312 C 0.722656 -3.511719 0.96875 -3.753906 1.28125 -3.914062 C 1.59375 -4.078125 1.941406 -4.160156 2.328125 -4.160156 C 2.714844 -4.160156 3.066406 -4.078125 3.378906 -3.914062 C 3.691406 -3.75 3.941406 -3.511719 4.125 -3.195312 C 4.308594 -2.878906 4.398438 -2.488281 4.398438 -2.027344 Z M 3.355469 -2.027344 C 3.355469 -2.453125 3.261719 -2.78125 3.078125 -3 C 2.890625 -3.222656 2.640625 -3.335938 2.328125 -3.335938 C 2.023438 -3.335938 1.777344 -3.226562 1.589844 -3.003906 C 1.402344 -2.785156 1.308594 -2.457031 1.308594 -2.027344 C 1.308594 -1.59375 1.402344 -1.265625 1.589844 -1.042969 C 1.777344 -0.824219 2.023438 -0.710938 2.332031 -0.710938 C 2.644531 -0.710938 2.890625 -0.824219 3.078125 -1.042969 C 3.261719 -1.265625 3.355469 -1.59375 3.355469 -2.027344 Z "/>
</g>
<g id="glyph-0-2">
<path d="M 3.59375 -3.492188 C 3.59375 -3.394531 3.566406 -3.304688 3.515625 -3.226562 C 3.460938 -3.148438 3.402344 -3.089844 3.332031 -3.046875 C 3.21875 -3.125 3.09375 -3.191406 2.957031 -3.25 C 2.816406 -3.308594 2.652344 -3.335938 2.460938 -3.335938 C 2.222656 -3.335938 2.019531 -3.285156 1.847656 -3.183594 C 1.675781 -3.078125 1.542969 -2.929688 1.449219 -2.734375 C 1.355469 -2.539062 1.308594 -2.300781 1.308594 -2.019531 C 1.308594 -1.589844 1.417969 -1.265625 1.632812 -1.046875 C 1.847656 -0.824219 2.140625 -0.710938 2.511719 -0.710938 C 2.703125 -0.710938 2.871094 -0.738281 3.007812 -0.792969 C 3.144531 -0.847656 3.273438 -0.90625 3.386719 -0.972656 C 3.453125 -0.925781 3.507812 -0.863281 3.550781 -0.785156 C 3.59375 -0.707031 3.613281 -0.613281 3.613281 -0.511719 C 3.613281 -0.421875 3.589844 -0.339844 3.542969 -0.265625 C 3.496094 -0.191406 3.417969 -0.128906 3.308594 -0.0742188 C 3.222656 -0.03125 3.101562 0.0117188 2.949219 0.0507812 C 2.792969 0.0898438 2.605469 0.113281 2.378906 0.113281 C 1.988281 0.113281 1.628906 0.0351562 1.308594 -0.117188 C 0.988281 -0.269531 0.734375 -0.503906 0.546875 -0.816406 C 0.359375 -1.132812 0.265625 -1.53125 0.265625 -2.019531 C 0.265625 -2.484375 0.355469 -2.875 0.542969 -3.191406 C 0.726562 -3.507812 0.976562 -3.75 1.289062 -3.914062 C 1.601562 -4.078125 1.945312 -4.160156 2.320312 -4.160156 C 2.582031 -4.160156 2.8125 -4.128906 3 -4.070312 C 3.191406 -4.011719 3.335938 -3.929688 3.441406 -3.828125 C 3.542969 -3.726562 3.59375 -3.617188 3.59375 -3.492188 Z "/>
</g>
<g id="glyph-0-3">
<path d="M 1.683594 -0.714844 C 1.921875 -0.714844 2.089844 -0.757812 2.195312 -0.847656 C 2.300781 -0.933594 2.351562 -1.035156 2.351562 -1.152344 C 2.351562 -1.265625 2.308594 -1.355469 2.226562 -1.421875 C 2.144531 -1.488281 2.023438 -1.550781 1.867188 -1.601562 L 1.515625 -1.714844 C 1.273438 -1.796875 1.0625 -1.882812 0.878906 -1.980469 C 0.695312 -2.078125 0.550781 -2.207031 0.449219 -2.359375 C 0.347656 -2.515625 0.296875 -2.710938 0.296875 -2.949219 C 0.296875 -3.320312 0.4375 -3.613281 0.71875 -3.832031 C 1 -4.050781 1.390625 -4.160156 1.886719 -4.160156 C 2.140625 -4.160156 2.367188 -4.136719 2.5625 -4.085938 C 2.761719 -4.035156 2.917969 -3.964844 3.03125 -3.871094 C 3.144531 -3.773438 3.199219 -3.65625 3.199219 -3.515625 C 3.199219 -3.417969 3.175781 -3.332031 3.128906 -3.257812 C 3.082031 -3.183594 3.023438 -3.117188 2.953125 -3.066406 C 2.851562 -3.136719 2.714844 -3.195312 2.546875 -3.25 C 2.375 -3.300781 2.191406 -3.324219 1.988281 -3.324219 C 1.773438 -3.324219 1.613281 -3.289062 1.507812 -3.222656 C 1.398438 -3.152344 1.34375 -3.0625 1.34375 -2.949219 C 1.34375 -2.863281 1.382812 -2.789062 1.453125 -2.734375 C 1.523438 -2.679688 1.632812 -2.628906 1.773438 -2.585938 L 2.140625 -2.472656 C 2.546875 -2.347656 2.859375 -2.179688 3.074219 -1.976562 C 3.292969 -1.769531 3.402344 -1.492188 3.402344 -1.144531 C 3.402344 -0.773438 3.257812 -0.46875 2.96875 -0.238281 C 2.679688 -0.00390625 2.261719 0.113281 1.714844 0.113281 C 1.441406 0.113281 1.199219 0.0820312 0.984375 0.0234375 C 0.769531 -0.0351562 0.601562 -0.117188 0.476562 -0.226562 C 0.351562 -0.335938 0.289062 -0.464844 0.289062 -0.613281 C 0.289062 -0.726562 0.324219 -0.828125 0.390625 -0.90625 C 0.460938 -0.988281 0.535156 -1.050781 0.617188 -1.09375 C 0.738281 -0.996094 0.886719 -0.910156 1.070312 -0.832031 C 1.25 -0.753906 1.457031 -0.714844 1.683594 -0.714844 Z "/>
</g>
</g>
</defs>
<g fill="rgb(20%, 19.607843%, 24.313725%)" fill-opacity="1">
<use xlink:href="#glyph-0-0" x="30" y="27.1875"/>
<use xlink:href="#glyph-0-1" x="34" y="27.1875"/>
<use xlink:href="#glyph-0-2" x="39" y="27.1875"/>
<use xlink:href="#glyph-0-3" x="43" y="27.1875"/>
</g>
</svg>
