<?xml version="1.0" encoding="UTF-8"?>
<svg xmlns="http://www.w3.org/2000/svg" xmlns:xlink="http://www.w3.org/1999/xlink" width="1920" height="1080" viewBox="0 0 1920 1080">
<defs>
<g>
<g id="glyph-0-0">
<path d="M 1.777344 -3.074219 C 1.644531 -3.074219 1.523438 -3.042969 1.414062 -2.980469 C 1.300781 -2.917969 1.203125 -2.832031 1.121094 -2.722656 C 1.035156 -2.613281 0.972656 -2.484375 0.925781 -2.339844 C 0.878906 -2.191406 0.851562 -2.03125 0.851562 -1.863281 C 0.851562 -1.6875 0.894531 -1.527344 0.972656 -1.378906 C 1.050781 -1.234375 1.160156 -1.105469 1.300781 -0.996094 C 1.441406 -0.886719 1.605469 -0.800781 1.792969 -0.742188 C 1.984375 -0.679688 2.1875 -0.648438 2.414062 -0.648438 C 2.574219 -0.648438 2.726562 -0.664062 2.871094 -0.691406 C 3.015625 -0.722656 3.144531 -0.761719 3.25 -0.8125 C 3.359375 -0.859375 3.445312 -0.917969 3.507812 -0.984375 C 3.570312 -1.050781 3.605469 -1.125 3.605469 -1.199219 C 3.605469 -1.257812 3.59375 -1.304688 3.574219 -1.34375 C 3.550781 -1.382812 3.527344 -1.417969 3.5 -1.453125 C 3.472656 -1.484375 3.449219 -1.515625 3.429688 -1.546875 C 3.40625 -1.578125 3.394531 -1.617188 3.394531 -1.667969 C 3.394531 -1.714844 3.40625 -1.761719 3.429688 -1.800781 C 3.453125 -1.84375 3.488281 -1.882812 3.527344 -1.914062 C 3.570312 -1.949219 3.617188 -1.972656 3.667969 -1.992188 C 3.722656 -2.011719 3.777344 -2.019531 3.832031 -2.019531 C 3.902344 -2.019531 3.964844 -2.003906 4.027344 -1.96875 C 4.085938 -1.933594 4.136719 -1.882812 4.179688 -1.820312 C 4.222656 -1.757812 4.257812 -1.6875 4.28125 -1.601562 C 4.308594 -1.519531 4.320312 -1.429688 4.320312 -1.335938 C 4.320312 -1.144531 4.269531 -0.96875 4.167969 -0.804688 C 4.066406 -0.640625 3.925781 -0.503906 3.75 -0.382812 C 3.570312 -0.265625 3.359375 -0.175781 3.113281 -0.109375 C 2.871094 -0.0429688 2.605469 -0.0078125 2.316406 -0.0078125 C 2 -0.0078125 1.707031 -0.0507812 1.4375 -0.136719 C 1.171875 -0.222656 0.941406 -0.339844 0.746094 -0.492188 C 0.550781 -0.644531 0.402344 -0.828125 0.292969 -1.035156 C 0.183594 -1.246094 0.128906 -1.476562 0.128906 -1.722656 C 0.128906 -1.996094 0.179688 -2.253906 0.273438 -2.496094 C 0.367188 -2.738281 0.5 -2.949219 0.664062 -3.132812 C 0.828125 -3.3125 1.019531 -3.457031 1.238281 -3.5625 C 1.460938 -3.667969 1.695312 -3.71875 1.941406 -3.71875 C 2.054688 -3.71875 2.15625 -3.707031 2.25 -3.683594 C 2.339844 -3.660156 2.421875 -3.625 2.488281 -3.578125 C 2.558594 -3.535156 2.613281 -3.484375 2.648438 -3.421875 C 2.6875 -3.363281 2.707031 -3.296875 2.707031 -3.226562 C 2.707031 -3.171875 2.695312 -3.117188 2.671875 -3.066406 C 2.648438 -3.015625 2.613281 -2.972656 2.574219 -2.933594 C 2.535156 -2.894531 2.488281 -2.863281 2.433594 -2.839844 C 2.382812 -2.816406 2.328125 -2.804688 2.269531 -2.804688 C 2.207031 -2.804688 2.15625 -2.816406 2.121094 -2.847656 C 2.085938 -2.875 2.050781 -2.90625 2.019531 -2.941406 C 1.988281 -2.972656 1.957031 -3.003906 1.921875 -3.03125 C 1.886719 -3.0625 1.839844 -3.074219 1.777344 -3.074219 Z "/>
</g>
<g id="glyph-0-1">
<path d="M 2.484375 -2.671875 C 2.484375 -2.699219 2.480469 -2.738281 2.46875 -2.789062 C 2.457031 -2.839844 2.441406 -2.902344 2.425781 -2.96875 C 2.410156 -3.035156 2.390625 -3.105469 2.371094 -3.183594 C 2.347656 -3.257812 2.328125 -3.332031 2.3125 -3.40625 C 2.296875 -3.480469 2.28125 -3.546875 2.269531 -3.609375 C 2.257812 -3.675781 2.253906 -3.726562 2.253906 -3.769531 C 2.253906 -3.824219 2.269531 -3.867188 2.300781 -3.902344 C 2.332031 -3.9375 2.367188 -3.960938 2.414062 -3.980469 C 2.460938 -4 2.511719 -4.011719 2.566406 -4.019531 C 2.621094 -4.027344 2.671875 -4.03125 2.722656 -4.03125 C 2.785156 -4.03125 2.84375 -4.015625 2.902344 -3.980469 C 2.957031 -3.945312 2.996094 -3.886719 3.019531 -3.796875 C 3.046875 -3.707031 3.066406 -3.613281 3.085938 -3.519531 C 3.101562 -3.429688 3.117188 -3.339844 3.132812 -3.25 C 3.144531 -3.160156 3.160156 -3.078125 3.171875 -2.996094 C 3.183594 -2.914062 3.199219 -2.835938 3.210938 -2.765625 C 3.226562 -2.707031 3.246094 -2.664062 3.265625 -2.632812 C 3.289062 -2.597656 3.316406 -2.574219 3.347656 -2.554688 C 3.378906 -2.539062 3.414062 -2.527344 3.449219 -2.523438 C 3.488281 -2.515625 3.527344 -2.515625 3.570312 -2.515625 C 3.617188 -2.515625 3.667969 -2.519531 3.71875 -2.527344 C 3.773438 -2.539062 3.828125 -2.542969 3.878906 -2.542969 C 3.914062 -2.542969 3.945312 -2.539062 3.976562 -2.527344 C 4.007812 -2.515625 4.035156 -2.496094 4.0625 -2.46875 C 4.089844 -2.441406 4.109375 -2.40625 4.125 -2.359375 C 4.140625 -2.3125 4.148438 -2.253906 4.148438 -2.179688 C 4.148438 -2.117188 4.136719 -2.066406 4.113281 -2.027344 C 4.089844 -1.984375 4.042969 -1.957031 3.976562 -1.941406 L 3.851562 -1.914062 C 3.8125 -1.90625 3.773438 -1.902344 3.738281 -1.898438 C 3.707031 -1.894531 3.664062 -1.890625 3.609375 -1.886719 C 3.5 -1.875 3.445312 -1.828125 3.445312 -1.742188 C 3.445312 -1.734375 3.449219 -1.703125 3.460938 -1.648438 C 3.46875 -1.589844 3.480469 -1.519531 3.496094 -1.4375 C 3.511719 -1.355469 3.527344 -1.261719 3.546875 -1.160156 C 3.566406 -1.0625 3.585938 -0.964844 3.601562 -0.875 C 3.621094 -0.78125 3.636719 -0.703125 3.648438 -0.628906 C 3.664062 -0.558594 3.675781 -0.507812 3.683594 -0.476562 C 3.695312 -0.425781 3.703125 -0.382812 3.710938 -0.355469 C 3.71875 -0.328125 3.71875 -0.289062 3.71875 -0.238281 C 3.71875 -0.203125 3.710938 -0.164062 3.6875 -0.128906 C 3.667969 -0.09375 3.636719 -0.0585938 3.59375 -0.03125 C 3.554688 -0.00390625 3.503906 0.0195312 3.445312 0.0351562 C 3.386719 0.0546875 3.320312 0.0625 3.246094 0.0625 C 3.164062 0.0625 3.101562 0.0390625 3.066406 -0.0117188 C 3.03125 -0.0625 3.003906 -0.121094 2.992188 -0.1875 C 2.960938 -0.308594 2.929688 -0.433594 2.902344 -0.5625 C 2.875 -0.691406 2.851562 -0.820312 2.828125 -0.949219 C 2.800781 -1.074219 2.777344 -1.199219 2.757812 -1.320312 C 2.734375 -1.441406 2.714844 -1.558594 2.695312 -1.667969 C 2.683594 -1.71875 2.660156 -1.757812 2.632812 -1.78125 C 2.601562 -1.808594 2.5625 -1.820312 2.515625 -1.820312 C 2.355469 -1.820312 2.195312 -1.816406 2.03125 -1.804688 C 1.871094 -1.792969 1.714844 -1.785156 1.558594 -1.777344 C 1.503906 -1.773438 1.460938 -1.753906 1.433594 -1.722656 C 1.402344 -1.691406 1.386719 -1.652344 1.386719 -1.605469 C 1.386719 -1.496094 1.386719 -1.386719 1.390625 -1.277344 C 1.390625 -1.167969 1.394531 -1.058594 1.394531 -0.945312 C 1.394531 -0.816406 1.390625 -0.683594 1.386719 -0.546875 C 1.382812 -0.410156 1.378906 -0.277344 1.371094 -0.152344 C 1.367188 -0.105469 1.355469 -0.0664062 1.332031 -0.0351562 C 1.308594 -0.00390625 1.28125 0.0195312 1.246094 0.0390625 C 1.210938 0.0585938 1.171875 0.0703125 1.128906 0.078125 C 1.085938 0.0859375 1.042969 0.0898438 1 0.0898438 C 0.886719 0.0898438 0.800781 0.0703125 0.742188 0.0351562 C 0.679688 -0.00390625 0.648438 -0.0664062 0.648438 -0.152344 C 0.648438 -0.285156 0.652344 -0.421875 0.660156 -0.5625 C 0.667969 -0.707031 0.671875 -0.851562 0.671875 -1 C 0.671875 -1.097656 0.667969 -1.191406 0.667969 -1.285156 C 0.664062 -1.378906 0.664062 -1.472656 0.664062 -1.574219 C 0.664062 -1.617188 0.652344 -1.652344 0.632812 -1.671875 C 0.613281 -1.695312 0.589844 -1.714844 0.5625 -1.726562 C 0.53125 -1.742188 0.5 -1.753906 0.464844 -1.769531 C 0.429688 -1.78125 0.398438 -1.800781 0.371094 -1.828125 C 0.34375 -1.851562 0.316406 -1.890625 0.296875 -1.941406 C 0.277344 -1.988281 0.269531 -2.058594 0.269531 -2.144531 C 0.269531 -2.191406 0.277344 -2.226562 0.292969 -2.253906 C 0.3125 -2.28125 0.335938 -2.304688 0.363281 -2.320312 C 0.390625 -2.335938 0.417969 -2.351562 0.449219 -2.359375 C 0.480469 -2.371094 0.507812 -2.386719 0.535156 -2.402344 C 0.5625 -2.417969 0.582031 -2.4375 0.601562 -2.464844 C 0.617188 -2.488281 0.628906 -2.523438 0.628906 -2.570312 C 0.628906 -2.597656 0.625 -2.632812 0.625 -2.671875 C 0.621094 -2.710938 0.621094 -2.746094 0.617188 -2.78125 C 0.613281 -2.816406 0.613281 -2.847656 0.609375 -2.875 C 0.609375 -2.902344 0.605469 -2.921875 0.605469 -2.929688 C 0.605469 -3.011719 0.617188 -3.074219 0.640625 -3.121094 C 0.664062 -3.171875 0.691406 -3.207031 0.722656 -3.230469 C 0.753906 -3.257812 0.792969 -3.273438 0.835938 -3.28125 C 0.875 -3.289062 0.914062 -3.292969 0.953125 -3.292969 C 1.09375 -3.292969 1.191406 -3.265625 1.246094 -3.214844 C 1.300781 -3.160156 1.332031 -3.085938 1.335938 -2.984375 L 1.351562 -2.613281 C 1.355469 -2.558594 1.371094 -2.515625 1.398438 -2.484375 C 1.421875 -2.457031 1.464844 -2.441406 1.523438 -2.441406 L 2.324219 -2.46875 C 2.390625 -2.472656 2.4375 -2.492188 2.457031 -2.523438 C 2.476562 -2.558594 2.484375 -2.605469 2.484375 -2.671875 Z "/>
</g>
<g id="glyph-0-2">
<path d="M 0.222656 -0.703125 C 0.183594 -0.703125 0.152344 -0.722656 0.132812 -0.761719 C 0.113281 -0.800781 0.101562 -0.859375 0.101562 -0.929688 C 0.101562 -0.941406 0.101562 -0.957031 0.101562 -0.972656 C 0.101562 -0.988281 0.105469 -1.015625 0.109375 -1.0625 C 0.117188 -1.230469 0.199219 -1.328125 0.359375 -1.359375 L 0.441406 -1.363281 C 0.496094 -1.371094 0.539062 -1.390625 0.566406 -1.414062 C 0.597656 -1.441406 0.621094 -1.480469 0.636719 -1.53125 C 0.675781 -1.664062 0.714844 -1.800781 0.753906 -1.9375 C 0.792969 -2.074219 0.835938 -2.207031 0.882812 -2.339844 C 0.90625 -2.417969 0.929688 -2.496094 0.953125 -2.582031 C 0.976562 -2.667969 1.003906 -2.753906 1.035156 -2.839844 C 1.066406 -2.925781 1.097656 -3.007812 1.136719 -3.089844 C 1.175781 -3.171875 1.21875 -3.246094 1.269531 -3.316406 C 1.289062 -3.34375 1.320312 -3.371094 1.359375 -3.402344 C 1.394531 -3.433594 1.4375 -3.460938 1.488281 -3.484375 C 1.535156 -3.511719 1.585938 -3.53125 1.640625 -3.546875 C 1.695312 -3.5625 1.75 -3.570312 1.804688 -3.570312 C 1.875 -3.570312 1.945312 -3.546875 2.015625 -3.503906 C 2.105469 -3.4375 2.195312 -3.363281 2.285156 -3.273438 C 2.375 -3.183594 2.472656 -3.070312 2.585938 -2.929688 C 2.695312 -2.792969 2.824219 -2.625 2.96875 -2.429688 C 3.113281 -2.230469 3.289062 -1.996094 3.496094 -1.71875 C 3.527344 -1.683594 3.558594 -1.65625 3.59375 -1.636719 C 3.625 -1.621094 3.667969 -1.613281 3.714844 -1.613281 L 3.914062 -1.613281 C 3.996094 -1.613281 4.0625 -1.59375 4.105469 -1.554688 C 4.152344 -1.515625 4.175781 -1.460938 4.175781 -1.394531 C 4.175781 -1.378906 4.175781 -1.363281 4.175781 -1.34375 C 4.171875 -1.324219 4.167969 -1.304688 4.160156 -1.289062 L 4.09375 -1.089844 C 4.089844 -1.070312 4.085938 -1.054688 4.082031 -1.039062 C 4.082031 -1.027344 4.082031 -1.011719 4.082031 -1 C 4.082031 -0.949219 4.097656 -0.898438 4.128906 -0.847656 L 4.507812 -0.332031 C 4.550781 -0.269531 4.570312 -0.207031 4.570312 -0.152344 C 4.570312 -0.0664062 4.523438 0.0078125 4.425781 0.0703125 L 4.292969 0.164062 C 4.257812 0.1875 4.226562 0.203125 4.199219 0.214844 C 4.167969 0.226562 4.140625 0.234375 4.109375 0.234375 C 4.066406 0.234375 4.027344 0.21875 3.992188 0.195312 C 3.953125 0.171875 3.917969 0.136719 3.886719 0.09375 C 3.773438 -0.0664062 3.660156 -0.222656 3.546875 -0.378906 C 3.433594 -0.53125 3.316406 -0.6875 3.199219 -0.839844 C 3.144531 -0.914062 3.074219 -0.953125 2.984375 -0.953125 C 2.695312 -0.941406 2.414062 -0.925781 2.132812 -0.90625 C 1.851562 -0.886719 1.570312 -0.859375 1.289062 -0.832031 C 1.1875 -0.824219 1.121094 -0.769531 1.097656 -0.671875 L 0.9375 -0.0898438 C 0.894531 0.0664062 0.800781 0.144531 0.65625 0.144531 L 0.597656 0.144531 L 0.488281 0.128906 C 0.410156 0.121094 0.351562 0.0976562 0.308594 0.0546875 C 0.265625 0.0117188 0.246094 -0.0429688 0.246094 -0.109375 C 0.246094 -0.125 0.246094 -0.140625 0.25 -0.15625 C 0.253906 -0.171875 0.257812 -0.1875 0.261719 -0.207031 C 0.273438 -0.253906 0.285156 -0.304688 0.296875 -0.351562 C 0.3125 -0.402344 0.324219 -0.449219 0.339844 -0.496094 C 0.34375 -0.515625 0.347656 -0.53125 0.347656 -0.546875 C 0.351562 -0.5625 0.351562 -0.578125 0.351562 -0.59375 C 0.351562 -0.664062 0.324219 -0.703125 0.269531 -0.703125 Z M 1.902344 -2.5625 C 1.878906 -2.585938 1.855469 -2.601562 1.835938 -2.617188 C 1.816406 -2.632812 1.796875 -2.636719 1.777344 -2.636719 C 1.71875 -2.636719 1.675781 -2.597656 1.652344 -2.515625 C 1.605469 -2.375 1.5625 -2.238281 1.519531 -2.105469 C 1.476562 -1.96875 1.429688 -1.832031 1.386719 -1.6875 C 1.382812 -1.675781 1.378906 -1.667969 1.378906 -1.65625 C 1.378906 -1.648438 1.378906 -1.636719 1.378906 -1.625 C 1.378906 -1.539062 1.425781 -1.496094 1.515625 -1.496094 L 1.550781 -1.496094 C 1.691406 -1.515625 1.832031 -1.527344 1.976562 -1.539062 C 2.117188 -1.550781 2.257812 -1.558594 2.398438 -1.566406 C 2.445312 -1.570312 2.480469 -1.582031 2.507812 -1.601562 C 2.535156 -1.621094 2.550781 -1.648438 2.550781 -1.683594 C 2.550781 -1.714844 2.535156 -1.75 2.507812 -1.792969 C 2.410156 -1.921875 2.308594 -2.054688 2.210938 -2.179688 C 2.109375 -2.308594 2.007812 -2.4375 1.902344 -2.5625 Z "/>
</g>
<g id="glyph-0-3">
<path d="M 0.910156 -2.929688 C 0.890625 -2.929688 0.855469 -2.925781 0.800781 -2.917969 C 0.75 -2.910156 0.6875 -2.898438 0.617188 -2.886719 C 0.546875 -2.875 0.472656 -2.863281 0.394531 -2.847656 C 0.316406 -2.832031 0.246094 -2.820312 0.175781 -2.808594 C 0.109375 -2.796875 0.046875 -2.785156 0 -2.777344 C -0.0507812 -2.769531 -0.0859375 -2.765625 -0.101562 -2.765625 C -0.257812 -2.765625 -0.339844 -2.847656 -0.339844 -3.011719 C -0.339844 -3.054688 -0.335938 -3.101562 -0.328125 -3.144531 C -0.320312 -3.1875 -0.304688 -3.226562 -0.28125 -3.265625 C -0.261719 -3.300781 -0.234375 -3.332031 -0.199219 -3.355469 C -0.164062 -3.382812 -0.117188 -3.402344 -0.0625 -3.410156 C 0.210938 -3.453125 0.484375 -3.496094 0.757812 -3.542969 C 1.03125 -3.589844 1.304688 -3.640625 1.582031 -3.691406 C 1.644531 -3.703125 1.699219 -3.714844 1.75 -3.726562 C 1.800781 -3.738281 1.855469 -3.75 1.914062 -3.769531 C 1.980469 -3.789062 2.050781 -3.808594 2.128906 -3.824219 C 2.207031 -3.84375 2.285156 -3.859375 2.363281 -3.871094 C 2.441406 -3.886719 2.519531 -3.898438 2.59375 -3.90625 C 2.667969 -3.917969 2.734375 -3.921875 2.796875 -3.921875 C 2.871094 -3.921875 2.929688 -3.898438 2.96875 -3.847656 C 3.007812 -3.800781 3.027344 -3.734375 3.027344 -3.648438 C 3.027344 -3.601562 3.023438 -3.558594 3.015625 -3.519531 C 3.007812 -3.476562 2.996094 -3.441406 2.976562 -3.40625 C 2.957031 -3.375 2.933594 -3.347656 2.898438 -3.324219 C 2.867188 -3.304688 2.824219 -3.292969 2.773438 -3.285156 C 2.636719 -3.265625 2.496094 -3.246094 2.339844 -3.21875 C 2.1875 -3.191406 2.054688 -3.160156 1.941406 -3.128906 C 1.894531 -3.113281 1.859375 -3.089844 1.835938 -3.058594 C 1.8125 -3.027344 1.796875 -2.988281 1.792969 -2.941406 C 1.785156 -2.898438 1.78125 -2.851562 1.777344 -2.804688 C 1.777344 -2.757812 1.777344 -2.714844 1.777344 -2.671875 C 1.777344 -2.574219 1.78125 -2.476562 1.789062 -2.378906 C 1.796875 -2.277344 1.804688 -2.179688 1.8125 -2.082031 C 1.832031 -1.742188 1.867188 -1.40625 1.910156 -1.074219 C 1.953125 -0.742188 2 -0.410156 2.050781 -0.0703125 C 2.058594 -0.0585938 2.058594 -0.046875 2.058594 -0.0351562 C 2.058594 -0.0234375 2.058594 -0.0117188 2.058594 0 C 2.058594 0.128906 1.988281 0.222656 1.839844 0.273438 L 1.683594 0.324219 C 1.640625 0.339844 1.597656 0.34375 1.558594 0.34375 C 1.496094 0.34375 1.449219 0.328125 1.410156 0.289062 C 1.371094 0.25 1.347656 0.191406 1.335938 0.117188 C 1.269531 -0.289062 1.214844 -0.691406 1.164062 -1.089844 C 1.113281 -1.492188 1.082031 -1.894531 1.070312 -2.304688 C 1.066406 -2.371094 1.058594 -2.441406 1.058594 -2.519531 C 1.054688 -2.597656 1.054688 -2.675781 1.054688 -2.757812 C 1.054688 -2.875 1.007812 -2.929688 0.910156 -2.929688 Z "/>
</g>
</g>
</defs>
<g fill="rgb(20%, 19.607843%, 24.313725%)" fill-opacity="1">
<use xlink:href="#glyph-0-0" x="30" y="25.568359"/>
<use xlink:href="#glyph-0-1" x="34" y="25.568359"/>
<use xlink:href="#glyph-0-2" x="38" y="25.568359"/>
<use xlink:href="#glyph-0-3" x="42" y="25.568359"/>
</g>
</svg>
