<?xml version="1.0" encoding="UTF-8"?>
<svg xmlns="http://www.w3.org/2000/svg" xmlns:xlink="http://www.w3.org/1999/xlink" width="1920" height="1080" viewBox="0 0 1920 1080">
<defs>
<g>
<g id="glyph-0-0">
<path d="M 3.171875 -4.671875 C 3.464844 -4.671875 3.609375 -4.421875 3.609375 -3.921875 C 3.609375 -3.867188 3.609375 -3.808594 3.609375 -3.75 L 3.589844 -3.050781 C 3.582031 -2.832031 3.578125 -2.613281 3.578125 -2.398438 L 3.730469 -0.140625 C 3.730469 0.0273438 3.558594 0.109375 3.21875 0.109375 C 3.199219 0.109375 3.152344 0.109375 3.074219 0.109375 C 3 0.109375 2.945312 0.078125 2.914062 0.0195312 C 2.882812 -0.0390625 2.882812 -0.113281 2.90625 -0.199219 C 2.929688 -0.285156 2.921875 -0.382812 2.878906 -0.488281 C 2.574219 -0.164062 2.167969 0 1.660156 0 C 0.71875 0 0.25 -0.726562 0.25 -2.179688 C 0.25 -2.988281 0.402344 -3.597656 0.703125 -4.011719 C 1.007812 -4.425781 1.441406 -4.628906 2.011719 -4.628906 C 2.277344 -4.628906 2.542969 -4.582031 2.808594 -4.488281 C 2.894531 -4.609375 3.015625 -4.671875 3.171875 -4.671875 Z M 2.128906 -3.761719 C 1.75 -3.761719 1.464844 -3.648438 1.28125 -3.429688 C 1.09375 -3.210938 1 -2.808594 1 -2.21875 C 1 -1.234375 1.265625 -0.738281 1.800781 -0.738281 C 1.941406 -0.738281 2.09375 -0.804688 2.265625 -0.929688 C 2.433594 -1.054688 2.554688 -1.199219 2.621094 -1.359375 C 2.746094 -1.71875 2.808594 -2.113281 2.808594 -2.539062 C 2.808594 -2.964844 2.757812 -3.277344 2.65625 -3.46875 C 2.550781 -3.664062 2.375 -3.761719 2.128906 -3.761719 Z "/>
</g>
<g id="glyph-0-1">
<path d="M 0.761719 -0.308594 L 0.648438 -4.371094 C 0.648438 -4.496094 0.691406 -4.601562 0.78125 -4.679688 C 0.867188 -4.761719 0.953125 -4.800781 1.039062 -4.800781 C 1.253906 -4.800781 1.375 -4.710938 1.410156 -4.53125 C 1.4375 -4.351562 1.449219 -4.164062 1.449219 -3.96875 C 1.808594 -4.441406 2.261719 -4.679688 2.800781 -4.679688 C 3.625 -4.679688 4.039062 -3.738281 4.039062 -1.851562 C 4.039062 -1.675781 4.039062 -1.414062 4.039062 -1.066406 C 4.039062 -0.714844 4.019531 -0.460938 3.980469 -0.300781 C 3.933594 -0.101562 3.789062 0 3.550781 0 C 3.390625 0 3.308594 -0.105469 3.308594 -0.320312 L 3.320312 -0.878906 C 3.320312 -1.652344 3.296875 -2.183594 3.246094 -2.464844 C 3.195312 -2.75 3.148438 -2.972656 3.101562 -3.140625 C 2.988281 -3.5 2.804688 -3.679688 2.550781 -3.679688 C 2.21875 -3.679688 1.984375 -3.558594 1.851562 -3.320312 C 1.703125 -3.058594 1.617188 -2.753906 1.589844 -2.398438 C 1.542969 -1.78125 1.519531 -1.125 1.519531 -0.429688 C 1.519531 -0.296875 1.46875 -0.191406 1.371094 -0.109375 C 1.269531 -0.03125 1.148438 0.0117188 1.011719 0.0117188 C 0.84375 0.0117188 0.761719 -0.0976562 0.761719 -0.308594 Z "/>
</g>
<g id="glyph-0-2">
<path d="M 2.769531 -4.679688 L 2.761719 -6.609375 C 2.761719 -6.96875 2.875 -7.148438 3.105469 -7.148438 C 3.335938 -7.148438 3.464844 -7.050781 3.488281 -6.851562 C 3.503906 -6.765625 3.519531 -6.238281 3.539062 -5.28125 C 3.558594 -4.320312 3.589844 -3.421875 3.636719 -2.578125 C 3.679688 -1.738281 3.699219 -0.957031 3.699219 -0.230469 C 3.699219 -0.03125 3.550781 0.0703125 3.25 0.0703125 C 3.050781 0.0703125 2.949219 -0.0703125 2.949219 -0.351562 C 2.664062 -0.125 2.324219 -0.0117188 1.929688 -0.0117188 C 1.429688 -0.0117188 1.023438 -0.195312 0.714844 -0.570312 C 0.40625 -0.945312 0.25 -1.402344 0.25 -1.949219 C 0.25 -2.496094 0.363281 -3.007812 0.585938 -3.484375 C 0.808594 -3.960938 1.15625 -4.304688 1.628906 -4.511719 C 1.921875 -4.636719 2.207031 -4.699219 2.480469 -4.699219 C 2.582031 -4.699219 2.675781 -4.691406 2.769531 -4.679688 Z M 2.820312 -3.308594 C 2.773438 -3.457031 2.714844 -3.566406 2.648438 -3.644531 C 2.582031 -3.722656 2.511719 -3.769531 2.433594 -3.785156 C 2.359375 -3.800781 2.265625 -3.808594 2.160156 -3.808594 C 2.054688 -3.808594 1.921875 -3.769531 1.769531 -3.691406 C 1.617188 -3.609375 1.488281 -3.480469 1.378906 -3.300781 C 1.167969 -2.941406 1.058594 -2.5625 1.058594 -2.164062 C 1.058594 -1.769531 1.136719 -1.445312 1.296875 -1.195312 C 1.453125 -0.945312 1.675781 -0.820312 1.964844 -0.820312 C 2.253906 -0.820312 2.484375 -0.964844 2.648438 -1.25 C 2.816406 -1.535156 2.898438 -1.902344 2.898438 -2.351562 C 2.898438 -2.851562 2.875 -3.171875 2.820312 -3.308594 Z "/>
</g>
<g id="glyph-0-3">
<rect x="0" y="0" width="0" height="0" mask="url(#mask-0)"/>
</g>
<g id="glyph-0-4">
<path d="M 3.25 -0.410156 C 3.011719 -0.128906 2.707031 0.0117188 2.339844 0.0117188 C 1.972656 0.0117188 1.65625 -0.101562 1.390625 -0.328125 C 0.832031 -0.761719 0.550781 -1.425781 0.550781 -2.320312 C 0.550781 -3.019531 0.742188 -3.582031 1.128906 -4.003906 C 1.515625 -4.429688 1.992188 -4.640625 2.558594 -4.640625 C 3.125 -4.640625 3.511719 -4.445312 3.71875 -4.058594 C 3.898438 -3.71875 3.988281 -3.207031 3.988281 -2.519531 L 3.96875 -1.699219 C 3.96875 -1.3125 3.988281 -0.777344 4.023438 -0.09375 C 4.0625 0.589844 4.078125 1.101562 4.078125 1.449219 C 4.078125 2.023438 3.9375 2.445312 3.65625 2.714844 C 3.371094 2.984375 2.941406 3.121094 2.359375 3.121094 C 2.011719 3.121094 1.660156 3.046875 1.300781 2.898438 C 0.941406 2.753906 0.761719 2.582031 0.761719 2.390625 C 0.761719 2.25 0.796875 2.144531 0.875 2.070312 C 0.953125 1.996094 1.039062 1.960938 1.140625 1.960938 C 1.238281 1.960938 1.464844 2.035156 1.816406 2.179688 C 2.164062 2.328125 2.417969 2.398438 2.570312 2.398438 C 3.050781 2.398438 3.289062 2.007812 3.289062 1.21875 C 3.289062 0.433594 3.277344 -0.109375 3.25 -0.410156 Z M 3.238281 -2.519531 C 3.238281 -3.007812 3.167969 -3.347656 3.023438 -3.546875 C 2.882812 -3.742188 2.65625 -3.839844 2.351562 -3.839844 C 2.042969 -3.839844 1.796875 -3.699219 1.609375 -3.421875 C 1.421875 -3.140625 1.328125 -2.785156 1.328125 -2.355469 C 1.328125 -1.925781 1.417969 -1.582031 1.59375 -1.328125 C 1.769531 -1.074219 2.042969 -0.949219 2.410156 -0.949219 C 2.777344 -0.949219 3.011719 -1.105469 3.121094 -1.421875 C 3.199219 -1.675781 3.238281 -2.039062 3.238281 -2.519531 Z "/>
</g>
<g id="glyph-0-5">
<path d="M 2.148438 -4.660156 C 2.628906 -4.660156 3.023438 -4.429688 3.335938 -3.96875 C 3.644531 -3.507812 3.800781 -2.957031 3.800781 -2.316406 C 3.800781 -1.671875 3.640625 -1.125 3.324219 -0.671875 C 3.007812 -0.21875 2.589844 0.0117188 2.066406 0.0117188 C 1.542969 0.0117188 1.121094 -0.222656 0.800781 -0.683594 C 0.480469 -1.148438 0.320312 -1.664062 0.320312 -2.230469 C 0.320312 -2.957031 0.464844 -3.535156 0.761719 -3.96875 C 1.074219 -4.429688 1.535156 -4.660156 2.148438 -4.660156 Z M 2.03125 -3.839844 C 1.75 -3.839844 1.519531 -3.691406 1.339844 -3.398438 C 1.160156 -3.105469 1.070312 -2.796875 1.070312 -2.46875 C 1.070312 -1.964844 1.171875 -1.578125 1.371094 -1.308594 C 1.570312 -1.042969 1.796875 -0.910156 2.050781 -0.910156 C 2.503906 -0.910156 2.792969 -1.105469 2.921875 -1.5 C 2.972656 -1.6875 3 -1.921875 3 -2.199219 C 3 -3.292969 2.675781 -3.839844 2.03125 -3.839844 Z "/>
</g>
<g id="glyph-0-6">
<path d="M 1.039062 -6.320312 C 1.160156 -6.320312 1.273438 -6.261719 1.378906 -6.148438 C 1.484375 -6.035156 1.539062 -5.917969 1.539062 -5.796875 C 1.539062 -5.671875 1.480469 -5.546875 1.363281 -5.421875 C 1.246094 -5.292969 1.125 -5.230469 1 -5.230469 C 0.875 -5.230469 0.757812 -5.285156 0.65625 -5.390625 C 0.550781 -5.496094 0.5 -5.632812 0.5 -5.800781 C 0.5 -6.121094 0.671875 -6.292969 1.019531 -6.320312 C 1.027344 -6.320312 1.035156 -6.320312 1.039062 -6.320312 Z M 1.460938 -1.078125 L 1.46875 -0.378906 C 1.46875 -0.253906 1.421875 -0.148438 1.320312 -0.0664062 C 1.21875 0.0195312 1.113281 0.0585938 1 0.0585938 C 0.832031 0.0585938 0.746094 -0.0234375 0.738281 -0.191406 C 0.652344 -2.316406 0.609375 -3.492188 0.609375 -3.71875 C 0.609375 -3.945312 0.621094 -4.222656 0.640625 -4.550781 C 0.652344 -4.671875 0.730469 -4.730469 0.871094 -4.730469 C 1.222656 -4.730469 1.421875 -4.585938 1.46875 -4.300781 C 1.488281 -4.152344 1.5 -4.035156 1.5 -3.949219 L 1.460938 -3.320312 Z "/>
</g>
<g id="glyph-0-7">
<path d="M 0.359375 -4.28125 C 0.386719 -4.394531 0.441406 -4.488281 0.53125 -4.566406 C 0.617188 -4.640625 0.703125 -4.679688 0.796875 -4.679688 C 0.886719 -4.679688 0.953125 -4.664062 1.003906 -4.628906 C 1.054688 -4.597656 1.085938 -4.566406 1.09375 -4.539062 C 1.105469 -4.511719 1.117188 -4.464844 1.128906 -4.398438 C 1.089844 -3.878906 1.070312 -3.410156 1.070312 -2.996094 C 1.070312 -2.578125 1.121094 -2.101562 1.21875 -1.566406 C 1.320312 -1.027344 1.429688 -0.761719 1.550781 -0.761719 C 1.730469 -0.761719 1.957031 -0.859375 2.234375 -1.058594 C 2.511719 -1.257812 2.710938 -1.46875 2.828125 -1.691406 C 2.75 -2.652344 2.710938 -3.472656 2.710938 -4.160156 C 2.710938 -4.300781 2.753906 -4.421875 2.84375 -4.519531 C 2.933594 -4.621094 3.042969 -4.671875 3.171875 -4.671875 C 3.378906 -4.671875 3.480469 -4.53125 3.480469 -4.25 C 3.480469 -3.777344 3.515625 -3.074219 3.585938 -2.140625 C 3.65625 -1.207031 3.726562 -0.613281 3.800781 -0.359375 C 3.8125 -0.304688 3.820312 -0.246094 3.820312 -0.175781 C 3.820312 -0.105469 3.773438 -0.0390625 3.683594 0.0234375 C 3.59375 0.0859375 3.476562 0.121094 3.335938 0.121094 C 3.191406 0.121094 3.097656 0.0390625 3.050781 -0.121094 C 3.035156 -0.253906 3.003906 -0.453125 2.949219 -0.71875 C 2.484375 -0.234375 2.011719 0.0117188 1.539062 0.0117188 C 1.320312 0.0117188 1.125 -0.0742188 0.949219 -0.238281 C 0.777344 -0.40625 0.640625 -0.632812 0.539062 -0.921875 C 0.367188 -1.472656 0.28125 -1.992188 0.28125 -2.480469 C 0.28125 -2.96875 0.308594 -3.566406 0.359375 -4.28125 Z "/>
</g>
<g id="glyph-0-8">
<path d="M 0.628906 -4.671875 L 1.128906 -4.660156 C 1.242188 -4.660156 1.308594 -4.664062 1.320312 -4.671875 L 1.320312 -6.71875 C 1.328125 -6.832031 1.382812 -6.929688 1.488281 -7.011719 C 1.597656 -7.089844 1.695312 -7.128906 1.789062 -7.128906 C 1.882812 -7.128906 1.957031 -7.101562 2.015625 -7.039062 C 2.070312 -6.980469 2.097656 -6.886719 2.089844 -6.761719 C 2.082031 -6.632812 2.078125 -5.941406 2.078125 -4.679688 L 3.25 -4.71875 C 3.449219 -4.71875 3.550781 -4.601562 3.550781 -4.371094 C 3.550781 -4.195312 3.5 -4.066406 3.394531 -3.980469 C 3.292969 -3.894531 3.183594 -3.847656 3.066406 -3.839844 C 2.949219 -3.832031 2.832031 -3.828125 2.71875 -3.828125 L 2.109375 -3.839844 C 2.109375 -3.566406 2.136719 -3.027344 2.195312 -2.21875 C 2.25 -1.414062 2.296875 -0.890625 2.328125 -0.65625 C 2.363281 -0.417969 2.371094 -0.265625 2.351562 -0.195312 C 2.332031 -0.125 2.292969 -0.078125 2.238281 -0.0507812 C 2.152344 -0.0117188 2.035156 0.0117188 1.890625 0.0117188 C 1.742188 0.0117188 1.65625 -0.0703125 1.628906 -0.230469 C 1.496094 -1.101562 1.40625 -2.304688 1.359375 -3.828125 C 1.300781 -3.824219 1.070312 -3.820312 0.671875 -3.820312 C 0.269531 -3.820312 0.0703125 -3.9375 0.0703125 -4.171875 C 0.0703125 -4.503906 0.257812 -4.671875 0.628906 -4.671875 Z "/>
</g>
<g id="glyph-0-9">
<path d="M 0.351562 -6.46875 C 0.371094 -6.722656 0.410156 -6.886719 0.476562 -6.964844 C 0.539062 -7.042969 0.640625 -7.078125 0.78125 -7.078125 C 1.066406 -7.078125 1.210938 -6.964844 1.210938 -6.730469 C 1.210938 -6.550781 1.195312 -6.078125 1.164062 -5.320312 C 1.132812 -4.558594 1.121094 -3.878906 1.121094 -3.28125 C 1.121094 -2.679688 1.144531 -2.195312 1.191406 -1.828125 C 1.269531 -1.1875 1.382812 -0.871094 1.53125 -0.871094 C 1.675781 -0.871094 1.785156 -0.972656 1.859375 -1.179688 C 1.894531 -1.261719 1.945312 -1.332031 2.019531 -1.394531 C 2.09375 -1.457031 2.1875 -1.488281 2.300781 -1.488281 C 2.535156 -1.488281 2.648438 -1.292969 2.648438 -0.898438 C 2.648438 -0.6875 2.535156 -0.476562 2.304688 -0.265625 C 2.074219 -0.0546875 1.847656 0.0507812 1.621094 0.0507812 C 1.394531 0.0507812 1.210938 0.0117188 1.074219 -0.0664062 C 0.9375 -0.140625 0.828125 -0.257812 0.746094 -0.410156 C 0.660156 -0.5625 0.59375 -0.710938 0.546875 -0.855469 C 0.496094 -1 0.460938 -1.171875 0.441406 -1.378906 C 0.402344 -1.714844 0.371094 -2.25 0.355469 -2.984375 C 0.339844 -3.722656 0.328125 -4.425781 0.328125 -5.09375 C 0.328125 -5.765625 0.335938 -6.222656 0.351562 -6.46875 Z "/>
</g>
<g id="glyph-0-10">
<path d="M 1.019531 -6.648438 C 0.960938 -6.582031 0.886719 -6.550781 0.800781 -6.550781 C 0.714844 -6.550781 0.636719 -6.582031 0.570312 -6.644531 C 0.503906 -6.707031 0.460938 -6.796875 0.441406 -6.910156 L 0.519531 -8.398438 C 0.554688 -8.605469 0.667969 -8.710938 0.859375 -8.710938 C 1.09375 -8.710938 1.210938 -8.484375 1.210938 -8.03125 C 1.210938 -7.917969 1.199219 -7.769531 1.175781 -7.589844 C 1.152344 -7.410156 1.136719 -7.1875 1.128906 -6.921875 C 1.121094 -6.808594 1.085938 -6.714844 1.019531 -6.648438 Z "/>
</g>
<g id="glyph-0-11">
<path d="M 0.550781 -3.398438 C 0.550781 -3.792969 0.691406 -4.105469 0.96875 -4.339844 C 1.25 -4.574219 1.574219 -4.691406 1.945312 -4.691406 C 2.316406 -4.691406 2.671875 -4.625 3.011719 -4.488281 C 3.351562 -4.355469 3.519531 -4.179688 3.519531 -3.960938 C 3.519531 -3.847656 3.476562 -3.757812 3.390625 -3.691406 C 3.304688 -3.625 3.226562 -3.589844 3.164062 -3.589844 C 3.101562 -3.589844 3.050781 -3.589844 3.015625 -3.59375 C 2.980469 -3.597656 2.84375 -3.660156 2.613281 -3.78125 C 2.382812 -3.902344 2.171875 -3.960938 1.980469 -3.960938 C 1.785156 -3.960938 1.621094 -3.910156 1.484375 -3.816406 C 1.347656 -3.71875 1.28125 -3.578125 1.28125 -3.390625 C 1.28125 -3.203125 1.359375 -3.058594 1.515625 -2.949219 C 1.671875 -2.84375 1.945312 -2.75 2.339844 -2.675781 C 2.734375 -2.597656 3.035156 -2.488281 3.246094 -2.351562 C 3.457031 -2.210938 3.558594 -1.949219 3.558594 -1.570312 C 3.558594 -1.015625 3.414062 -0.625 3.125 -0.394531 C 2.835938 -0.164062 2.484375 -0.0507812 2.070312 -0.0507812 C 1.65625 -0.0507812 1.304688 -0.105469 1.015625 -0.21875 C 0.726562 -0.332031 0.578125 -0.503906 0.578125 -0.730469 C 0.578125 -0.988281 0.710938 -1.121094 0.96875 -1.121094 C 1.035156 -1.121094 1.183594 -1.074219 1.410156 -0.980469 C 1.636719 -0.886719 1.863281 -0.839844 2.085938 -0.839844 C 2.308594 -0.839844 2.476562 -0.910156 2.59375 -1.054688 C 2.710938 -1.199219 2.769531 -1.363281 2.769531 -1.550781 C 2.769531 -1.738281 2.691406 -1.871094 2.539062 -1.953125 C 2.386719 -2.039062 2.152344 -2.105469 1.839844 -2.160156 C 1.527344 -2.214844 1.296875 -2.269531 1.148438 -2.328125 C 0.75 -2.488281 0.550781 -2.847656 0.550781 -3.398438 Z "/>
</g>
<g id="glyph-0-12">
<path d="M 1.820312 -4.628906 C 2.171875 -4.628906 2.511719 -4.527344 2.828125 -4.320312 C 3.148438 -4.113281 3.308594 -3.859375 3.308594 -3.554688 C 3.308594 -3.25 3.179688 -2.957031 2.921875 -2.675781 C 2.660156 -2.390625 2.3125 -2.21875 1.878906 -2.160156 C 1.691406 -2.132812 1.414062 -2.121094 1.039062 -2.121094 C 1.113281 -1.554688 1.257812 -1.179688 1.46875 -1 C 1.535156 -0.925781 1.625 -0.890625 1.738281 -0.890625 C 2.152344 -0.890625 2.5 -1.023438 2.78125 -1.285156 C 3.058594 -1.546875 3.261719 -1.679688 3.378906 -1.679688 C 3.433594 -1.679688 3.511719 -1.628906 3.621094 -1.53125 C 3.726562 -1.429688 3.78125 -1.335938 3.78125 -1.25 C 3.78125 -1.078125 3.570312 -0.828125 3.148438 -0.5 C 2.960938 -0.347656 2.738281 -0.21875 2.476562 -0.113281 C 2.210938 -0.0117188 1.964844 0.0390625 1.738281 0.0390625 C 1.160156 0.0390625 0.734375 -0.332031 0.460938 -1.078125 C 0.285156 -1.539062 0.199219 -2.046875 0.199219 -2.601562 C 0.199219 -3.152344 0.328125 -3.628906 0.589844 -4.03125 C 0.851562 -4.429688 1.261719 -4.628906 1.820312 -4.628906 Z M 1.871094 -3.941406 C 1.617188 -3.941406 1.398438 -3.796875 1.21875 -3.511719 C 1.152344 -3.410156 1.089844 -3.183594 1.03125 -2.828125 C 1.964844 -2.828125 2.429688 -3.058594 2.429688 -3.519531 C 2.429688 -3.800781 2.242188 -3.941406 1.871094 -3.941406 Z "/>
</g>
</g>
<image id="source-51" x="0" y="0" width="0" height="0"/>
<mask id="mask-0">
<use xlink:href="#source-51"/>
</mask>
</defs>
<g fill="rgb(20%, 19.607843%, 24.313725%)" fill-opacity="1">
<use xlink:href="#glyph-0-0" x="30" y="30.419922"/>
<use xlink:href="#glyph-0-1" x="34" y="30.419922"/>
<use xlink:href="#glyph-0-2" x="39" y="30.419922"/>
<use xlink:href="#glyph-0-3" x="43" y="30.419922"/>
<use xlink:href="#glyph-0-4" x="45" y="30.419922"/>
<use xlink:href="#glyph-0-5" x="49" y="30.419922"/>
<use xlink:href="#glyph-0-3" x="53" y="30.419922"/>
<use xlink:href="#glyph-0-0" x="55" y="30.419922"/>
<use xlink:href="#glyph-0-4" x="59" y="30.419922"/>
<use xlink:href="#glyph-0-0" x="63" y="30.419922"/>
<use xlink:href="#glyph-0-6" x="67" y="30.419922"/>
<use xlink:href="#glyph-0-1" x="69" y="30.419922"/>
<use xlink:href="#glyph-0-3" x="74" y="30.419922"/>
<use xlink:href="#glyph-0-7" x="76" y="30.419922"/>
<use xlink:href="#glyph-0-1" x="80" y="30.419922"/>
<use xlink:href="#glyph-0-8" x="85" y="30.419922"/>
<use xlink:href="#glyph-0-6" x="88" y="30.419922"/>
<use xlink:href="#glyph-0-9" x="90" y="30.419922"/>
<use xlink:href="#glyph-0-3" x="93" y="30.419922"/>
<use xlink:href="#glyph-0-6" x="95" y="30.419922"/>
<use xlink:href="#glyph-0-8" x="97" y="30.419922"/>
<use xlink:href="#glyph-0-10" x="100" y="30.419922"/>
<use xlink:href="#glyph-0-11" x="102" y="30.419922"/>
<use xlink:href="#glyph-0-3" x="106" y="30.419922"/>
<use xlink:href="#glyph-0-2" x="108" y="30.419922"/>
<use xlink:href="#glyph-0-5" x="112" y="30.419922"/>
<use xlink:href="#glyph-0-1" x="116" y="30.419922"/>
<use xlink:href="#glyph-0-12" x="121" y="30.419922"/>
</g>
</svg>
